<?xml version="1.0" encoding="UTF-8"?>
<svg id="Layer_2" data-name="Layer 2" xmlns="http://www.w3.org/2000/svg" viewBox="0 0 873.92 873.25">
  <defs>
    <style>
      .cls-1 {
        fill: #fff;
      }

      .cls-2 {
        fill: #294f7a;
      }

      .cls-3 {
        fill: #eb6542;
      }

      .cls-4 {
        fill: #96c1d8;
      }
    </style>
  </defs>
  <g id="Layer_1-2" data-name="Layer 1">
    <g>
      <g>
        <path class="cls-2" d="M453.11,866.75c-2.13,0-4.14-1.05-5.35-2.82-1.27-1.84-1.5-4.2-.62-6.25l32.07-74.73,9.35-21.81,33.76-78.69,.88-2.05s30.16-70.3,30.18-70.35l2.69-6.29,67.51-157.38c.91-2.11,2.86-3.59,5.14-3.88l21.57-2.79,62.21-8.02,5.11-.66,70.66-9.12,8.02-1.04,7.02-.9,56.35-7.27c.28-.04,.55-.05,.83-.05,1.52,0,3,.53,4.18,1.52,1.39,1.17,2.23,2.87,2.31,4.69,.69,15.47,.52,31.15-.5,46.6,0,.09,0,.18-.01,.27h0c-.32,4.8-.71,9.57-1.17,14.18-.49,4.99-1.08,10-1.75,14.87-3.56,26.36-9.65,52.54-18.12,77.83-1.24,3.71-2.31,6.78-3.35,9.66-.03,.07-.05,.14-.08,.21-8.76,24.2-19.82,47.84-32.9,70.28-5.46,9.36-11.29,18.55-17.33,27.35-9.79,14.27-20.45,27.99-31.68,40.79-2.1,2.41-4.06,4.6-5.96,6.67-2.97,3.25-5.69,6.14-8.32,8.84-32.38,33.53-69.76,61.34-111.1,82.65-.09,.05-.18,.1-.27,.15-6.5,3.34-13.19,6.56-19.88,9.56-.05,.03-.1,.05-.16,.07-21.7,9.8-44.51,17.85-67.78,23.94-.05,.01-.11,.03-.16,.04-2.4,.63-4.91,1.27-7.64,1.93-7.52,1.83-15.31,3.5-23.15,4.96-20.62,3.84-41.59,6.2-62.33,7.03-.09,0-.17,0-.26,0Zm164.94-189.98l-25.81,60.15-4.72,11.01c2.11-1.02,4.2-2.05,6.27-3.1,.09-.05,.18-.1,.28-.15,32.44-16.46,61.88-37.83,87.5-63.5,.06-.07,.12-.13,.18-.19,7.31-7.31,14.46-15.15,21.23-23.31,1.43-1.71,2.85-3.46,4.25-5.23,5.17-6.47,10.18-13.23,14.92-20.13,11.74-17.1,21.95-35.27,30.37-54,7.26-16.15,13.31-32.98,17.97-50.02,1.54-5.62,2.96-11.37,4.24-17.2l-65.91,8.5-24.71,3.19-32.3,75.29-8.98,20.92-13.38,31.18c-.04,.09-.08,.17-.12,.26l-11.28,26.32Z"/>
        <path class="cls-2" d="M860.52,419.15c.68,15.45,.51,30.85-.51,46.14,.01,0,0,.02,0,.02-.31,4.66-.69,9.32-1.15,13.97-.48,4.89-1.06,9.78-1.72,14.64-3.52,26.05-9.49,51.69-17.84,76.64-1.07,3.19-2.15,6.34-3.3,9.51h0c-8.63,23.9-19.48,47.12-32.47,69.43-5.34,9.14-11.02,18.12-17.07,26.94-9.68,14.1-20.09,27.51-31.21,40.18-1.92,2.2-3.87,4.39-5.86,6.56-2.69,2.95-5.42,5.85-8.19,8.7-32.03,33.16-69.01,60.61-109.68,81.54h0c-6.48,3.34-13.05,6.5-19.71,9.49,0,0,0,0-.01,0,0,0,0,0,0,0h0c-21.38,9.67-43.7,17.56-66.75,23.59h-.02c-2.55,.68-5.1,1.32-7.67,1.94-7.52,1.83-15.13,3.46-22.81,4.89-20.47,3.81-40.98,6.11-61.4,6.92l7.65-17.84,17.82-41.52,6.6-15.38,9.35-21.81,24.86-57.95,8.9-20.74,.88-2.04,30.12-70.21h0s2.75-6.44,2.75-6.44l17.7-41.26,16.06-37.43,33.76-78.69,21.57-2.79,62.21-8.01,5.12-.67,70.65-9.12,8.03-1.04,7.01-.9,56.36-7.27m-285.57,341.59c7.44-3.16,14.81-6.57,22.05-10.25h0c32.52-16.52,62.74-38.22,89.32-64.88l.02-.03c7.53-7.52,14.74-15.44,21.64-23.76,1.47-1.76,2.91-3.54,4.35-5.36,5.27-6.59,10.33-13.42,15.17-20.48,12.14-17.69,22.44-36.1,30.94-55.01,7.49-16.65,13.59-33.69,18.32-50.97,2.41-8.79,4.46-17.65,6.17-26.53l-19.54,2.52-55.4,7.15-28.39,3.67-33.77,78.7-8.98,20.92-13.38,31.19-.02,.03-11.38,26.55-25.81,60.15-7.94,18.54h0s-3.36,7.85-3.36,7.85m285.57-354.59c-.55,0-1.11,.04-1.66,.11l-56.36,7.27-7,.89-8.05,1.04-70.65,9.12-5.13,.67-62.19,8.01-21.58,2.79c-4.56,.59-8.47,3.54-10.28,7.77l-33.76,78.69-16.06,37.43-17.7,41.26-2.65,6.2c-.04,.08-.07,.16-.11,.24l-30.12,70.21-.87,2.03-8.9,20.76-24.86,57.95-9.35,21.81-6.6,15.37-17.82,41.51-7.65,17.84c-1.76,4.1-1.29,8.82,1.24,12.49,2.43,3.53,6.44,5.63,10.71,5.63,.17,0,.35,0,.52-.01,21.05-.84,42.33-3.24,63.26-7.13,7.94-1.48,15.85-3.17,23.51-5.04,2.74-.66,5.28-1.3,7.73-1.95,.06-.01,.12-.03,.18-.04,23.63-6.18,46.78-14.35,68.81-24.3,.08-.03,.15-.07,.23-.11,6.76-3.04,13.52-6.29,20.1-9.67,.14-.07,.27-.14,.41-.22,41.91-21.63,79.82-49.84,112.68-83.86,2.66-2.73,5.42-5.67,8.45-8.98,1.93-2.09,3.92-4.32,6.06-6.78,11.38-12.96,22.2-26.89,32.13-41.37,6.12-8.92,12.04-18.25,17.57-27.74,13.26-22.76,24.48-46.73,33.37-71.27,.04-.1,.08-.2,.11-.3,1.06-2.92,2.14-6.03,3.4-9.81,8.6-25.67,14.78-52.26,18.4-79.03,.67-4.92,1.27-10.01,1.78-15.09,.46-4.64,.86-9.42,1.17-14.2,.02-.21,.03-.41,.04-.62,1.02-15.63,1.19-31.49,.5-47.16-.16-3.63-1.84-7.03-4.62-9.38-2.36-1.98-5.32-3.05-8.37-3.05h0Zm-171.9,122.61l21.03-2.72,55.4-7.15,1.22-.16c-.65,2.64-1.34,5.25-2.04,7.83-4.58,16.73-10.51,33.24-17.64,49.08-8.26,18.38-18.29,36.2-29.8,52.99-4.65,6.77-9.56,13.4-14.61,19.72-.02,.02-.03,.04-.05,.06-1.36,1.72-2.75,3.43-4.12,5.08-6.67,8.04-13.68,15.74-20.85,22.9-.09,.09-.19,.19-.28,.29-22.59,22.62-48.21,41.83-76.26,57.2l23.41-54.54,11.24-26.23c.05-.12,.11-.23,.16-.35l13.38-31.19,8.98-20.92,30.84-71.89h0Z"/>
      </g>
      <g>
        <path class="cls-3" d="M461.97,477.06c-2.02,0-3.95-.94-5.19-2.58-1.41-1.86-1.71-4.33-.79-6.48l33.76-78.69,20.37-47.47,13.39-31.23,2.63-6.11c.05-.14,.1-.27,.16-.4l21.41-49.91,9.57-22.26,3.42-7.99,13.8-32.16,16.52-38.54,11.57-26.95s8.74-20.38,8.76-20.43l19.57-45.59c.72-1.68,2.11-2.97,3.83-3.57,.69-.24,1.42-.36,2.14-.36,1.07,0,2.13,.26,3.09,.78,6.74,3.64,13.31,7.4,19.54,11.17,3.17,1.93,6.03,3.71,8.77,5.47,3.93,2.5,8.03,5.21,12.16,8.04,7.5,5.15,14.97,10.63,22.2,16.28,.03,.02,.05,.04,.08,.06,9.9,7.73,19.56,16,28.72,24.58,3.56,3.31,7.17,6.8,10.73,10.35,6.03,6.04,12.02,12.41,17.81,18.94,7.74,8.75,15.21,17.94,22.21,27.33,5.4,7.22,10.59,14.66,15.43,22.09,4.41,6.75,8.67,13.71,12.67,20.68,4.02,7,7.8,14.05,11.25,20.94,4.77,9.5,9.22,19.27,13.24,29.05,5.57,13.55,10.51,27.57,14.68,41.69,.25,.82,.5,1.71,.76,2.59,2.72,9.36,5.12,18.88,7.16,28.28,.93,4.25,1.83,8.71,2.68,13.25,2.09,11.25,3.77,22.77,4.98,34.22,.95,8.88,1.62,17.89,1.98,26.77,.14,3.37-2.32,6.28-5.66,6.71l-56.36,7.27-7.02,.9-8.02,1.04c-.28,.04-.56,.05-.83,.05-1.54,0-3.04-.55-4.23-1.56-1.4-1.2-2.22-2.93-2.27-4.77-.55-22.19-3.24-44.39-8-66.08l-26.68,3.43-38.12,4.92-45.66,5.9-61.69,7.96-13.86,1.79-4.57,.59-32.3,75.29c-.91,2.12-2.87,3.59-5.15,3.88l-51.22,6.61-32.58,4.19c-.28,.04-.56,.05-.83,.05Zm191.06-250.82l-7.45,17.38-15.8,36.81-6.02,14.03,120.94-15.61c-7.84-15.34-16.86-30.16-26.89-44.14-2.28-3.2-4.7-6.44-7.21-9.66-1.3-1.71-2.69-3.47-4.39-5.59-10.54-13.08-22.1-25.45-34.46-36.86l-18.73,43.63Z"/>
        <path class="cls-3" d="M636.91,62.83c6.49,3.5,12.92,7.17,19.25,11.01,2.89,1.76,5.77,3.55,8.64,5.38,4.03,2.56,8.03,5.21,11.98,7.93,7.52,5.16,14.83,10.53,21.93,16.1h.01c9.84,7.69,19.26,15.76,28.28,24.21,3.59,3.34,7.12,6.75,10.58,10.21,6.04,6.05,11.89,12.28,17.53,18.65,7.68,8.68,14.97,17.66,21.87,26.91,5.3,7.09,10.37,14.33,15.19,21.74,4.35,6.66,8.51,13.45,12.47,20.37,3.88,6.77,7.58,13.63,11.07,20.62,4.7,9.36,9.05,18.89,13.05,28.61,5.5,13.36,10.32,27.06,14.45,41.05,.26,.85,.51,1.71,.75,2.57,2.65,9.15,5.01,18.44,7.05,27.84,.95,4.33,1.83,8.68,2.64,13.06,2.09,11.23,3.72,22.47,4.9,33.71,.94,8.8,1.59,17.58,1.95,26.35l-56.36,7.27-7.01,.9-8.03,1.04c-.62-24.65-3.79-49.16-9.47-73.11-.02-.11-.05-.2-.07-.31l-.62,.39h-.02s-31.82,4.1-31.82,4.1l-38.13,4.92-45.66,5.9-21.67,2.79-40.01,5.17-13.86,1.79-8.24,1.06-6.31,14.72-27.45,63.98-1.51,.19-49.72,6.42-32.57,4.19,3.54-8.26,26.02-60.64,4.2-9.79,15.51-36.14,4.86-11.33,13.39-31.23,2.8-6.51h-.01s21.41-49.91,21.41-49.91l9.56-22.26,3.42-8,13.8-32.15,16.52-38.54,11.57-26.94,8.69-20.28h0s13.5-31.45,13.5-31.45l6.13-14.3m-23.61,239.54l66.33-8.56,17.46-2.25,56.63-7.31h.02s.83-.1,.83-.1c-.05-.09-.1-.2-.16-.31-8.81-18.39-19.28-36.12-31.32-52.9-2.38-3.33-4.84-6.62-7.35-9.86-1.46-1.92-2.95-3.8-4.46-5.67-12.53-15.56-26.52-30.19-41.92-43.67l-22.3,51.96-7.45,17.38-15.8,36.8-10.51,24.5m23.61-252.54c-1.44,0-2.89,.24-4.28,.72-3.45,1.2-6.23,3.8-7.67,7.15l-6.13,14.3-13.39,31.2c-.04,.09-.08,.17-.12,.26l-8.69,20.28-11.57,26.94-16.53,38.55-13.8,32.14-3.43,8.02-9.56,22.23-21.41,49.91c-.08,.19-.16,.37-.23,.56l-2.56,5.93-13.4,31.26-4.86,11.32-15.51,36.14-4.2,9.79-26.02,60.64-3.54,8.26c-1.84,4.29-1.24,9.23,1.57,12.96,2.48,3.28,6.33,5.17,10.37,5.17,.55,0,1.11-.04,1.66-.11l32.57-4.19,49.72-6.42,1.5-.19c4.57-.58,8.48-3.54,10.3-7.77l27.45-63.98,3.39-7.89,.88-.11,13.87-1.8,40.01-5.17,21.67-2.79,45.67-5.9,38.12-4.92,20.72-2.67c3.9,19.42,6.13,39.23,6.62,59.02,.09,3.68,1.74,7.15,4.54,9.55,2.37,2.03,5.37,3.13,8.46,3.13,.56,0,1.11-.04,1.67-.11l8.03-1.04,6.99-.89,56.38-7.27c6.69-.86,11.6-6.69,11.33-13.43-.37-9.01-1.05-18.16-2.01-27.2-1.22-11.6-2.92-23.28-5.05-34.71-.85-4.59-1.77-9.12-2.72-13.47-2.06-9.52-4.51-19.18-7.26-28.67-.26-.9-.52-1.8-.79-2.69-4.23-14.31-9.23-28.52-14.88-42.26-4.08-9.91-8.6-19.84-13.45-29.5-3.49-6.98-7.33-14.14-11.42-21.26-4.05-7.07-8.38-14.14-12.87-21.01-4.89-7.53-10.17-15.08-15.66-22.42-7.1-9.52-14.69-18.85-22.54-27.73-5.87-6.63-11.95-13.1-18.07-19.23-3.64-3.63-7.31-7.17-10.93-10.54-9.27-8.68-19.08-17.08-29.13-24.93-.04-.03-.07-.06-.11-.09-7.32-5.73-14.88-11.28-22.48-16.49-4.2-2.88-8.36-5.63-12.37-8.18-2.72-1.75-5.63-3.56-8.84-5.51-6.34-3.85-13.01-7.66-19.84-11.35-1.92-1.03-4.04-1.56-6.17-1.56h0Zm-2.69,236.74l1.53-3.57,15.8-36.8,7.45-17.39,15.04-35.06c9.62,9.38,18.7,19.36,27.11,29.8,1.67,2.07,3.02,3.79,4.25,5.4,.02,.03,.05,.06,.07,.09,2.46,3.16,4.83,6.34,7.04,9.44,8.05,11.23,15.44,22.99,22.06,35.13l-39.16,5.05-17.46,2.25-43.74,5.65h0Z"/>
      </g>
      <g>
        <path class="cls-1" d="M365.74,861.17c-.46,0-.91-.05-1.35-.14-21.11-3.58-42.18-8.84-62.63-15.64-5.75-1.91-11.71-4.04-17.72-6.34-17.01-6.48-33.86-14.19-50.09-22.91-6.65-3.57-13.22-7.32-19.54-11.16-3.16-1.93-6.03-3.72-8.78-5.48-1.88-1.21-3.01-3.29-2.99-5.53,.02-2.23,1.18-4.3,3.08-5.48l47.29-29.2c.08-.05,.15-.1,.23-.15l21.66-13.38c1.04-.64,2.23-.97,3.42-.97,1,0,2.01,.23,2.93,.7,15.22,7.69,31.1,14.27,47.28,19.6l21.69-50.55-72.49,9.36-44.9,5.79-61.38,7.93-34.26,4.42c-.28,.04-.56,.05-.83,.05-1.71,0-3.36-.67-4.59-1.9-6.01-5.99-12.01-12.37-17.83-18.96-7.81-8.83-15.29-18.02-22.21-27.31-5.41-7.24-10.6-14.67-15.41-22.08-4.42-6.75-8.69-13.73-12.68-20.71-3.87-6.74-7.66-13.78-11.24-20.91-4.81-9.6-9.27-19.38-13.23-29.07-5.56-13.46-10.51-27.49-14.69-41.67-.25-.83-.51-1.72-.77-2.61-2.7-9.35-5.11-18.86-7.16-28.25-.39-1.78-.01-3.64,1.04-5.13,1.05-1.49,2.67-2.47,4.48-2.7l71.39-9.21c.13-.02,.27-.03,.4-.04,.1-.02,.2-.03,.29-.04l69.94-9.03,67.35-8.68,39.99-5.16,13.88-1.79,8.25-1.07,83.81-10.81,10.6-1.38,60.77-7.83,12.4-1.61,32.58-4.19,49.71-6.42c.28-.04,.56-.05,.83-.05,1.8,0,3.53,.75,4.77,2.08,1.43,1.54,2.02,3.68,1.59,5.74-.62,2.97-1.35,5.84-2.24,8.76-.09,.31-.2,.61-.34,.9l-9.71,22.64c-.04,.09-.08,.17-.12,.26l-9.62,22.41-10.61,24.76c-.91,2.11-2.86,3.59-5.14,3.89l-167.58,21.63-9.6,1.23-37.37,4.82-28.57,3.69-8.27,1.06-83.42,10.77c-.13,.02-.25,.04-.38,.06l-48.43,6.24c7.82,15.34,16.84,30.15,26.87,44.13,2.7,3.74,4.99,6.81,7.21,9.66,.68,.9,1.39,1.8,2.14,2.76l83.07-10.72c.12-.02,.24-.03,.36-.04l60.57-7.82c.13-.02,.26-.05,.39-.06l41.14-5.31c.12-.02,.24-.03,.36-.04l42.27-5.46,83.8-10.81c.28-.04,.56-.05,.83-.05,2.02,0,3.95,.94,5.19,2.58,1.41,1.86,1.71,4.34,.79,6.48l-13.75,32.03-19.99,46.64c-.03,.06-9.58,22.31-9.58,22.31l-24.19,56.39-5.58,12.97-28.2,65.72c-.91,2.11-2.86,3.59-5.14,3.88l-11.22,1.46c-.28,.04-.56,.05-.84,.05Z"/>
        <path class="cls-1" d="M544.26,459.95h0m0,0c-.58,2.77-1.28,5.5-2.11,8.24,0,.01,0,.03-.01,.05h0s-9.77,22.78-9.77,22.78t-.02,.03l-9.72,22.64-10.61,24.76-37.23,4.8-46.58,6.01-83.77,10.81-9.59,1.23-37.37,4.82-28.57,3.69-8.27,1.06-66.35,8.56-17.44,2.25h0s-56.67,7.32-56.67,7.32l-.79,.11c.04,.1,.09,.19,.14,.28,8.8,18.41,19.26,36.12,31.3,52.91,2.4,3.33,4.84,6.62,7.37,9.87,1.46,1.92,2.95,3.8,4.46,5.67h.01s64.2-8.28,64.2-8.28l22.49-2.9h.01s61.3-7.9,61.3-7.9h0s12.01-1.56,12.01-1.56l29.13-3.76h.01s42.62-5.5,42.62-5.5l83.8-10.81-6.2,14.45-7.55,17.58-19.99,46.64h0s-9.57,22.3-9.57,22.3l-13.47,31.4-10.72,24.99-5.57,12.96-28.2,65.73-11.22,1.46h-.01c-20.99-3.56-41.68-8.73-61.91-15.45-5.85-1.94-11.67-4.03-17.45-6.25-16.83-6.42-33.31-13.96-49.34-22.57-6.49-3.48-12.91-7.14-19.25-10.99-2.89-1.76-5.78-3.56-8.65-5.39l47.52-29.34h0s21.66-13.39,21.66-13.39c17.52,8.85,35.54,16.11,53.86,21.79l28.09-65.49,.42-.96-2.6,.34-10.17,1.31-71.02,9.17-44.9,5.79-38.89,5.02-22.49,2.9-34.26,4.42c-6.06-6.04-11.9-12.27-17.54-18.66-7.68-8.68-14.98-17.65-21.88-26.89-5.29-7.08-10.35-14.32-15.17-21.74-4.36-6.67-8.52-13.46-12.49-20.4-3.88-6.75-7.57-13.63-11.07-20.6-4.7-9.36-9.05-18.89-13.03-28.62-5.52-13.36-10.35-27.06-14.48-41.05-.26-.85-.51-1.71-.75-2.57-2.65-9.17-5-18.45-7.05-27.84l20.12-2.59,51.27-6.62c.02,.11,.05,.2,.08,.3l.61-.38,31.81-4.1,38.13-4.93,45.68-5.89,21.67-2.79,39.99-5.16,13.87-1.78,8.25-1.07,44.72-5.77,39.09-5.04,10.61-1.38,60.76-7.83,12.41-1.61,32.57-4.19,49.72-6.42m0-13c-.14,0-.28,0-.42,0-.49,.02-.98,.06-1.45,.13l-49.51,6.39-32.57,4.19-12.43,1.61-60.75,7.83-10.62,1.38-39.08,5.04-44.72,5.77-8.26,1.07-13.86,1.78-40,5.16-21.67,2.79-45.68,5.89-38.14,4.93-31.8,4.1c-.08,.01-.17,.02-.25,.04-.15,.01-.29,.03-.44,.05l-51.27,6.62-20.11,2.59c-3.61,.47-6.86,2.43-8.96,5.4-2.1,2.98-2.85,6.7-2.08,10.26,2.08,9.53,4.52,19.18,7.26,28.68,.26,.9,.52,1.8,.79,2.69,4.25,14.38,9.26,28.6,14.91,42.28,4.01,9.8,8.53,19.74,13.42,29.48,3.63,7.23,7.47,14.38,11.42,21.25,4.05,7.07,8.38,14.16,12.88,21.04,4.88,7.5,10.15,15.05,15.64,22.4,7.02,9.42,14.61,18.75,22.55,27.72,5.91,6.69,12,13.17,18.1,19.25,2.45,2.45,5.76,3.8,9.18,3.8,.55,0,1.11-.04,1.66-.11l34.26-4.42,22.49-2.9,38.89-5.03,44.9-5.79,61.2-7.9-14.83,34.56c-13.93-4.87-27.59-10.67-40.75-17.32-1.85-.93-3.86-1.4-5.86-1.4-2.38,0-4.74,.65-6.83,1.94l-21.66,13.38c-.11,.07-.22,.14-.33,.21l-47.19,29.14c-3.8,2.35-6.13,6.48-6.17,10.95-.04,4.47,2.22,8.64,5.99,11.05,2.79,1.79,5.7,3.61,8.9,5.55,6.43,3.9,13.11,7.72,19.86,11.34,16.47,8.85,33.58,16.68,50.85,23.26,6.07,2.32,12.13,4.49,17.98,6.44,20.75,6.89,42.12,12.23,63.54,15.87,.82,.16,1.65,.24,2.49,.24,.55,0,1.11-.04,1.67-.11l11.22-1.46c4.56-.59,8.46-3.54,10.27-7.77l28.2-65.73,5.57-12.95,10.72-25.01,13.47-31.4,9.46-22.04c.04-.09,.08-.18,.12-.26l19.99-46.64,7.55-17.57,6.21-14.45c1.84-4.29,1.24-9.24-1.57-12.96-2.48-3.28-6.33-5.17-10.37-5.17-.55,0-1.11,.04-1.66,.11l-83.8,10.81-42.12,5.44c-.17,.02-.34,.03-.51,.06l-29.13,3.76-12.01,1.55c-.18,.02-.37,.05-.55,.08l-60.26,7.78c-.17,.02-.34,.03-.51,.06l-22.49,2.9-56.89,7.34c-2.14-2.75-4.35-5.72-6.95-9.32-8.02-11.19-15.39-22.93-22.01-35.06l39.14-5.05c.18-.02,.36-.05,.53-.08l16.91-2.18,66.35-8.56,8.26-1.06,28.58-3.69,37.37-4.82,9.59-1.23,83.78-10.81,46.58-6.01,37.23-4.8c4.56-.59,8.47-3.54,10.28-7.77l10.61-24.76,9.57-22.3c.05-.12,.11-.24,.16-.36l9.76-22.75c.15-.35,.29-.7,.41-1.06,.04-.12,.08-.24,.12-.37,.91-3,1.67-5.94,2.31-8.97,.23-.98,.36-1.99,.36-3.04,0-7.08-5.66-12.84-12.71-13-.1,0-.2,0-.29,0h0Zm0,26h0Z"/>
      </g>
      <g>
        <path class="cls-4" d="M22.9,533.72c-3.01,0-5.68-2.09-6.34-5.11-.93-4.26-1.84-8.72-2.68-13.26-2.12-11.4-3.8-22.92-4.98-34.23-.94-8.84-1.61-17.84-1.99-26.74-.68-15.57-.51-31.34,.52-46.87,.31-4.75,.7-9.53,1.17-14.18,.49-5,1.08-10.01,1.75-14.87,3.58-26.44,9.67-52.62,18.11-77.81,1.15-3.44,2.34-6.8,3.35-9.63,8.79-24.32,19.89-48.04,32.99-70.53,5.46-9.36,11.29-18.56,17.33-27.36,9.79-14.26,20.45-27.99,31.68-40.79,2.13-2.44,4.29-4.83,5.94-6.64,2.81-3.07,5.6-6.04,8.3-8.83,32.49-33.64,69.97-61.5,111.4-82.81,6.51-3.34,13.25-6.59,20.02-9.64,21.68-9.78,44.5-17.85,67.8-23.96,2.62-.67,5.2-1.33,7.78-1.95,7.75-1.87,15.54-3.54,23.17-4.96,20.62-3.84,41.59-6.2,62.33-7.03,.09,0,.17,0,.26,0,2.13,0,4.14,1.05,5.35,2.82,1.26,1.84,1.5,4.2,.62,6.25l-25.47,59.36-49.7,115.87-.9,2.07-30.12,70.2-2.75,6.43-29.27,68.22,68.82-8.88,32.29-75.28,13.76-32.04,20-46.65,9.57-22.29,13.46-31.39,16.3-37.97,28.2-65.73,1.29-3.02c1.03-2.42,3.4-3.95,5.97-3.95,.31,0,.63,.02,.95,.07,3.61,.53,6.91,1.06,10.1,1.61,21.17,3.58,42.33,8.85,62.86,15.67,1.73,.57,3.13,1.84,3.88,3.5,.75,1.66,.76,3.56,.04,5.23l-9.95,23.17-18.42,42.96-28.09,65.49-.43,.99-26.36,61.44-7.39,17.24-13.86,32.28c-.05,.14-.1,.27-.16,.41l-19.74,46-1.32,3.09-32.43,75.59c-.91,2.11-2.86,3.59-5.14,3.88l-82.31,10.62-1.5,.19-51.47,6.66-32.31,4.17-21.57,2.77-62.23,8.03c-.28,.04-.56,.05-.83,.05-2.02,0-3.95-.94-5.19-2.58-1.41-1.86-1.71-4.34-.79-6.48l25.91-60.38,7.84-18.3,33.77-78.68,8.97-20.93,13.39-31.2,11.39-26.58,25.8-60.14,4.74-11.03c-2.21,1.06-4.4,2.15-6.58,3.25-32.47,16.5-61.95,37.91-87.63,63.65-7.35,7.36-14.5,15.22-21.25,23.36-1.45,1.74-2.88,3.5-4.26,5.24-5.16,6.45-10.17,13.21-14.9,20.1-11.73,17.1-21.95,35.27-30.38,54.01-7.26,16.16-13.3,32.99-17.96,50.03-2.35,8.57-4.39,17.32-6.07,26.03-3.54,18.54-5.58,37.5-6.05,56.33-.09,3.41-.13,6.85-.11,10.25,.01,2.59,.04,4.93,.1,7.15,.59,24.16,3.72,48.31,9.29,71.78,.43,1.79,.07,3.68-.98,5.2-1.05,1.52-2.69,2.52-4.52,2.75l-51.27,6.62-20.12,2.59c-.28,.04-.56,.05-.84,.05Z"/>
        <path class="cls-4" d="M420.82,13h0m0,0l-7.66,17.85-17.81,41.5-6.59,15.36-9.37,21.83-24.85,57.94-8.9,20.74-.89,2.06-30.12,70.21-2.75,6.43-17.71,41.27-16.05,37.41,28.39-3.67,55.4-7.15,21.5-50.12,12.25-28.57,6.21-14.46,7.55-17.58,20-46.66,9.57-22.29,13.46-31.39,10.73-24.98,5.57-12.98,28.2-65.73,1.3-3.03c3.32,.49,6.64,1.01,9.94,1.58,20.99,3.55,41.68,8.72,61.91,15.44l-9.95,23.17-13.18,30.73-5.25,12.24-28.09,65.49-.42,.96-3.65,8.5-22.72,52.96-7.39,17.24-14.03,32.68h.01s-6.45,15.04-6.45,15.04l-13.29,30.97-1.33,3.1-19.71,45.93-12.72,29.66-32.58,4.21-49.73,6.41-1.49,.19-51.49,6.66-29.59,3.81-2.72,.35-21.56,2.77-62.24,8.03,25.91-60.38,7.84-18.31,33.77-78.68,8.97-20.93,13.39-31.2,11.39-26.58,25.8-60.14,7.97-18.54,3.36-7.86c-7.47,3.16-14.84,6.59-22.08,10.27-32.5,16.51-62.71,38.21-89.29,64.85-7.52,7.54-14.74,15.48-21.65,23.8-1.47,1.77-2.92,3.55-4.36,5.37-5.26,6.58-10.32,13.4-15.16,20.45-12.14,17.69-22.44,36.1-30.95,55.02-7.48,16.67-13.58,33.7-18.3,50.98-2.41,8.79-4.47,17.64-6.18,26.52-3.64,19.03-5.69,38.22-6.17,57.4-.09,3.48-.13,6.96-.11,10.44,.01,2.43,.04,4.86,.11,7.29,.61,24.67,3.79,49.18,9.47,73.11l-51.27,6.62-20.12,2.59c-.95-4.33-1.82-8.68-2.64-13.06-2.09-11.23-3.73-22.48-4.9-33.71-.94-8.8-1.59-17.58-1.96-26.34-.68-15.46-.5-30.86,.51-46.17,.31-4.66,.69-9.32,1.15-13.97,.48-4.89,1.06-9.78,1.72-14.64,3.53-26.05,9.48-51.68,17.83-76.63,1.07-3.19,2.18-6.36,3.31-9.52,8.64-23.9,19.48-47.12,32.48-69.43,5.34-9.14,11.03-18.14,17.08-26.95,9.68-14.1,20.09-27.51,31.21-40.18,1.93-2.22,3.89-4.39,5.86-6.56,2.68-2.93,5.4-5.83,8.16-8.69,32.03-33.16,69.02-60.62,109.7-81.55,6.48-3.33,13.05-6.49,19.72-9.49,21.4-9.66,43.72-17.55,66.79-23.6,2.56-.65,5.11-1.31,7.66-1.92,7.54-1.82,15.15-3.46,22.83-4.89,20.47-3.81,40.98-6.11,61.4-6.92m0-13s-.1,0-.15,0h0s-.01,0-.02,0c-.15,0-.29,0-.43,.01-21.03,.84-42.28,3.24-63.18,7.13-7.74,1.44-15.65,3.13-23.51,5.04-2.63,.64-5.27,1.31-7.82,1.96-.03,0-.06,.02-.09,.02-23.66,6.21-46.82,14.39-68.83,24.33-6.87,3.09-13.7,6.38-20.31,9.77-42.08,21.64-80.13,49.93-113.11,84.08-2.76,2.85-5.51,5.78-8.4,8.94-1.82,2-3.93,4.34-6.07,6.79-11.37,12.96-22.19,26.89-32.13,41.36-6.13,8.93-12.04,18.26-17.58,27.75-13.31,22.84-24.57,46.92-33.48,71.57,0,.02-.01,.04-.02,.06-.95,2.66-2.19,6.17-3.39,9.75-8.56,25.58-14.75,52.16-18.39,79.01-.68,4.92-1.28,10.01-1.78,15.1-.47,4.71-.87,9.55-1.19,14.39-1.04,15.76-1.22,31.78-.53,47.59,.38,9.02,1.06,18.17,2.02,27.15,1.19,11.45,2.89,23.14,5.05,34.71,.86,4.62,1.78,9.15,2.72,13.47,1.32,6.03,6.66,10.22,12.69,10.22,.55,0,1.11-.04,1.67-.11l20.12-2.59,51.27-6.62c3.65-.47,6.94-2.47,9.03-5.5,2.09-3.03,2.8-6.81,1.95-10.39-5.47-23.03-8.54-46.73-9.12-70.43-.06-2.2-.09-4.49-.1-7.03-.02-3.33,.02-6.71,.11-10.04,.46-18.51,2.46-37.11,5.94-55.31,1.64-8.53,3.65-17.12,5.95-25.52,4.58-16.72,10.51-33.23,17.63-49.09,8.26-18.38,18.29-36.21,29.81-52.99,4.64-6.77,9.55-13.39,14.59-19.69,.02-.02,.04-.04,.05-.07,1.34-1.7,2.73-3.41,4.13-5.09,6.65-8.01,13.66-15.72,20.86-22.94,22.67-22.72,48.37-42.01,76.5-57.44l-23.4,54.55-11.4,26.58-13.39,31.19-8.97,20.93-33.77,78.67-7.85,18.32-25.91,60.37c-1.84,4.29-1.24,9.24,1.57,12.96,2.48,3.28,6.33,5.17,10.37,5.17,.55,0,1.11-.04,1.67-.11l62.24-8.03,21.56-2.77,2.73-.35,29.59-3.81,51.49-6.66,1.46-.18,49.76-6.41,32.58-4.21c4.56-.59,8.47-3.54,10.28-7.77l12.72-29.66,19.71-45.93,1.33-3.12,13.28-30.96,6.45-15.03c.08-.19,.16-.39,.23-.58l13.78-32.1,7.39-17.25,22.72-52.96,3.64-8.48,.4-.93s.02-.04,.02-.06l28.09-65.49,5.25-12.24,13.18-30.73,9.95-23.16c1.44-3.34,1.4-7.14-.09-10.46s-4.31-5.86-7.76-7.01c-20.85-6.92-42.33-12.28-63.85-15.92-3.22-.55-6.57-1.09-10.22-1.62-.64-.09-1.27-.14-1.9-.14-5.14,0-9.88,3.05-11.95,7.89l-1.3,3.03-28.2,65.71-5.57,12.98-10.73,24.98-13.47,31.39-9.57,22.29-20.01,46.66-7.55,17.57-6.21,14.46-12.25,28.57-18.58,43.3-48.04,6.2-5.8,.75,7.07-16.48,17.71-41.27,2.76-6.44,30.12-70.2,.88-2.02,8.91-20.77,24.85-57.94,9.37-21.83,6.59-15.37,17.81-41.5,7.52-17.52c.77-1.66,1.2-3.51,1.2-5.46C433.82,5.85,428.06,.06,420.92,0c-.04,0-.07,0-.11,0h0Zm0,26h0Z"/>
      </g>
    </g>
  </g>
</svg>