<?xml version="1.0" encoding="UTF-8"?>
<svg id="Layer_2" data-name="Layer 2" xmlns="http://www.w3.org/2000/svg" viewBox="0 0 1000 1000">
  <defs>
    <style>
      .cls-1 {
        fill: #fff;
      }

      .cls-2, .cls-3, .cls-4, .cls-5 {
        fill: #28170b;
      }

      .cls-6 {
        fill: #ffd82a;
      }

      .cls-7 {
        fill: #c9c9c9;
      }

      .cls-8 {
        letter-spacing: -.01em;
      }

      .cls-3 {
        font-size: 83.22px;
        letter-spacing: .07em;
      }

      .cls-3, .cls-5 {
        font-family: AllerDisplay, 'Aller Display';
        isolation: isolate;
      }

      .cls-9 {
        fill: #c8c8c8;
      }

      .cls-4 {
        font-family: SourceSansRoman-Black, 'Source Sans Variable';
        font-size: 23.29px;
        font-variation-settings: 'wght' 900;
        font-weight: 800;
      }

      .cls-10 {
        letter-spacing: -.02em;
      }

      .cls-5 {
        font-size: 56.75px;
        letter-spacing: -.04em;
      }
    </style>
  </defs>
  <g id="svg8">
    <g>
      <g>
        <path class="cls-6" d="M500,967c-63.05,0-124.21-12.35-181.77-36.7-55.61-23.52-105.55-57.19-148.44-100.09-42.89-42.89-76.56-92.83-100.09-148.44-24.35-57.57-36.7-118.73-36.7-181.77s12.35-124.21,36.7-181.77c23.52-55.61,57.19-105.55,100.09-148.44,42.89-42.89,92.84-76.56,148.44-100.09,57.57-24.35,118.73-36.7,181.77-36.7s124.21,12.35,181.77,36.7c55.61,23.52,105.55,57.19,148.44,100.09,42.89,42.89,76.57,92.84,100.09,148.44,24.35,57.57,36.7,118.73,36.7,181.77s-12.35,124.21-36.7,181.77c-23.52,55.61-57.19,105.55-100.09,148.44s-92.83,76.57-148.44,100.09c-57.57,24.35-118.73,36.7-181.77,36.7Z"/>
        <path class="cls-1" d="M500,42c61.84,0,121.82,12.11,178.27,35.98,54.54,23.07,103.52,56.09,145.59,98.16s75.09,91.05,98.16,145.59c23.88,56.45,35.98,116.43,35.98,178.27s-12.11,121.82-35.98,178.27c-23.07,54.54-56.09,103.52-98.16,145.59s-91.05,75.09-145.59,98.16c-56.45,23.88-116.43,35.98-178.27,35.98s-121.82-12.11-178.27-35.98c-54.54-23.07-103.52-56.09-145.59-98.16s-75.09-91.05-98.16-145.59c-23.88-56.45-35.98-116.43-35.98-178.27s12.11-121.82,35.98-178.27c23.07-54.54,56.09-103.52,98.16-145.59s91.05-75.09,145.59-98.16c56.45-23.88,116.43-35.98,178.27-35.98m0-18C237.11,24,24,237.11,24,500s213.11,476,476,476,476-213.11,476-476S762.89,24,500,24h0Z"/>
        <path class="cls-2" d="M500,24c262.89,0,476,213.11,476,476s-213.11,476-476,476S24,762.89,24,500,237.11,24,500,24m0-24c-67.49,0-132.97,13.22-194.63,39.3-59.54,25.18-113.01,61.23-158.92,107.14-45.91,45.91-81.96,99.38-107.14,158.92C13.22,367.03,0,432.51,0,500s13.22,132.97,39.3,194.63c25.18,59.54,61.23,113.01,107.14,158.92,45.91,45.91,99.38,81.96,158.92,107.14,61.66,26.08,127.14,39.3,194.63,39.3s132.97-13.22,194.63-39.3c59.54-25.18,113.01-61.23,158.92-107.14,45.91-45.91,81.96-99.38,107.14-158.92,26.08-61.66,39.3-127.14,39.3-194.63s-13.22-132.97-39.3-194.63c-25.18-59.54-61.23-113.01-107.14-158.92-45.91-45.91-99.38-81.96-158.92-107.14C632.97,13.22,567.49,0,500,0h0Z"/>
      </g>
      <g>
        <g>
          <path class="cls-2" d="M142.84,731.02c.85,.46,1.7,.92,2.55,1.37-.38,.97-.25,1.89,.21,2.59,.73,1.12,1.55,1.43,2.92,.53,2.23-1.46,4.45-2.93,6.68-4.39,.66,1.01,1.33,2.02,2,3.02-2.28,1.53-4.56,3.05-6.84,4.58-1.97,1.32-4.51,1.05-6.51-2.01-1.38-2.12-1.66-3.93-1.01-5.69Z"/>
          <path class="cls-2" d="M150.74,741.96c1.64-1.11,3.68,.02,6.78,3.77,.63-.53,.76-1.28,0-2.37-.59-.84-1.44-1.5-2.54-2.19,.26-.7,.52-1.4,.78-2.1,1.48,.88,2.88,2.03,3.97,3.6,1.78,2.55,1.67,4.74-.67,6.42-1.45,1.04-2.91,2.09-4.36,3.13-.58-.81-1.16-1.63-1.74-2.45,.21-.26,.42-.51,.63-.77-.02-.03-.04-.05-.05-.08-1.17-.45-2.25-1.14-3.04-2.29-1.29-1.88-1.07-3.78,.24-4.67Zm4.07,5.68c.45-.31,.89-.63,1.34-.94-1.71-1.97-2.65-2.36-3.24-1.95-.5,.34-.43,.97,.07,1.68,.47,.68,1.05,.96,1.83,1.21Z"/>
          <path class="cls-2" d="M158.27,752.73c1.6-1.16,3.66-.11,6.85,3.51,.61-.55,.72-1.3-.06-2.35-.61-.82-1.47-1.44-2.59-2.09,.24-.71,.48-1.41,.72-2.11,1.49,.82,2.92,1.91,4.05,3.44,1.84,2.47,1.79,4.66-.5,6.41-1.42,1.09-2.84,2.17-4.26,3.26-.6-.79-1.2-1.58-1.79-2.38,.2-.26,.41-.53,.61-.79-.02-.02-.04-.05-.05-.07-1.18-.41-2.27-1.05-3.09-2.17-1.34-1.82-1.16-3.72,.12-4.65Zm4.2,5.5c.44-.33,.87-.66,1.31-.99-1.75-1.9-2.7-2.25-3.27-1.83-.49,.36-.4,.98,.11,1.67,.49,.66,1.07,.92,1.85,1.14Z"/>
          <path class="cls-2" d="M171.76,759.46c.59,.77,1.18,1.53,1.78,2.29-.26,.31-.52,.62-.78,.94,.02,.02,.04,.05,.05,.07,1.22,.33,2.48,.87,3.5,2.14,1.62,2.03,1.21,3.79-.61,5.28-1.5,1.23-3.01,2.46-4.51,3.69-.76-.94-1.52-1.87-2.27-2.82,1.42-1.14,2.84-2.29,4.26-3.43,1.05-.85,1.09-1.48,.45-2.28-.56-.7-1.15-.93-2.1-1.18-1.66,1.31-3.31,2.62-4.97,3.93-.75-.95-1.49-1.91-2.23-2.87,2.47-1.92,4.94-3.84,7.41-5.76Z"/>
          <path class="cls-2" d="M182.36,768.22c.66-.54,1.66-.27,2.41,.63,.75,.9,.83,1.94,.18,2.49-.65,.55-1.66,.29-2.41-.62-.75-.91-.83-1.96-.18-2.5Zm-2,2.02c.75,.91,1.5,1.81,2.25,2.71-2.39,2.02-4.78,4.04-7.17,6.06-.77-.92-1.54-1.84-2.3-2.77,2.41-2,4.81-4,7.22-6Z"/>
          <path class="cls-2" d="M190.13,777.2c.76,.88,1.53,1.75,2.3,2.62-1.18,1.06-2.36,2.11-3.54,3.17,1.19,1.34,2.39,2.67,3.59,3.99,1.17-1.07,2.34-2.14,3.5-3.22,.78,.86,1.56,1.71,2.34,2.55-3.01,2.81-6.01,5.61-9.02,8.42-.81-.87-1.61-1.75-2.41-2.63,1.26-1.16,2.53-2.32,3.79-3.48-1.21-1.33-2.41-2.67-3.61-4.02-1.28,1.14-2.56,2.29-3.84,3.43-.79-.89-1.58-1.79-2.37-2.69,3.09-2.72,6.18-5.43,9.26-8.15Z"/>
          <path class="cls-2" d="M194.58,793.52c2.27-2.14,5.46-1.38,7.51,.75,2.05,2.13,2.69,5.34,.49,7.55-2.2,2.21-5.44,1.5-7.55-.69-2.11-2.18-2.72-5.47-.45-7.61Zm5.48,5.74c1.16-1.14,1.41-2.39,.41-3.43-1-1.04-2.25-.83-3.42,.3-1.17,1.13-1.43,2.38-.42,3.43,1.01,1.05,2.27,.83,3.43-.31Z"/>
          <path class="cls-2" d="M203.38,804.23c1.37-1.38,2.74-2.76,4.1-4.14,.81,.81,1.63,1.62,2.45,2.43-1.27,1.31-2.55,2.61-3.82,3.92-.94,.97-.91,1.59-.19,2.3,.63,.61,1.22,.78,2.22,.72,1.43-1.5,2.87-2.99,4.3-4.49,.82,.8,1.65,1.59,2.48,2.38-2.15,2.28-4.3,4.56-6.44,6.84-.69-.66-1.38-1.32-2.07-1.98,.24-.37,.48-.74,.72-1.12-.02-.02-.04-.04-.06-.06-1.36,0-2.57-.36-3.73-1.5-1.85-1.81-1.61-3.62,.04-5.29Z"/>
          <path class="cls-2" d="M210.7,814.78c.78-.06,1.55-.13,2.33-.2,.34,1.2,.83,2.12,1.56,2.79,.76,.7,1.31,.77,1.64,.4,.42-.46-.25-1.45-.88-2.55-.75-1.3-1.45-3-.39-4.13,1.19-1.28,3.28-.95,5.24,.85,1.3,1.19,1.89,2.51,2.21,3.62-.75,.07-1.5,.15-2.26,.22-.29-.92-.67-1.7-1.27-2.24-.65-.6-1.17-.69-1.48-.34-.41,.44,.24,1.35,.89,2.43,.79,1.32,1.58,2.93,.44,4.21-1.13,1.27-3.27,1.14-5.6-1-1.15-1.05-2.09-2.67-2.43-4.05Z"/>
          <path class="cls-2" d="M221.11,819.42c2.03-2.28,5.26-1.91,7.34-.1,2.47,2.14,2.45,4.67,.8,6.63-.32,.38-.71,.72-.9,.85-1.77-1.5-3.52-3.02-5.27-4.55-.66,1.23-.2,2.47,.98,3.49,.67,.58,1.41,.93,2.31,1.18-.07,.67-.14,1.35-.21,2.02-1.34-.27-2.79-.99-3.84-1.91-2.53-2.2-3.27-5.29-1.2-7.62Zm6.3,4.16c.67-.79,.74-1.71-.29-2.6-.82-.71-1.9-.88-2.86-.14,1.05,.92,2.1,1.84,3.15,2.74Z"/>
          <path class="cls-2" d="M226.03,832.81c1.66,.76,2.94,.66,3.54-.1,.38-.49,.76-.98,1.14-1.48-.04,.64-.08,1.28-.12,1.92-.41-.04-.82-.23-1.19-.53-.84-.7-1.24-1.78-.59-2.56,.61-.73,1.75-.6,2.67,.16,1.18,.98,1.21,2.28,.16,3.56-1.31,1.6-3.46,1.89-6.02,.62,.13-.53,.27-1.07,.4-1.6Z"/>
          <path class="cls-2" d="M237.25,836.56c.9,.12,1.81,.23,2.71,.34-.08,1.02,.29,1.8,.91,2.28,.97,.76,1.81,.76,2.81-.55,1.63-2.12,3.25-4.23,4.88-6.35,.89,.68,1.77,1.36,2.66,2.04-1.66,2.19-3.31,4.38-4.97,6.57-1.43,1.9-3.83,2.55-6.5,.47-1.85-1.44-2.6-2.98-2.5-4.81Z"/>
          <path class="cls-2" d="M248.1,843.77c2.06-2.77,4.12-5.54,6.18-8.3,.89,.66,1.78,1.32,2.68,1.98-2.06,2.82-4.12,5.63-6.18,8.45-.35,.48-.19,.84,.03,1,.11,.08,.18,.13,.36,.22-.29,.63-.59,1.27-.88,1.9-.38-.12-.9-.37-1.53-.83-1.9-1.4-1.8-2.89-.67-4.41Z"/>
          <path class="cls-2" d="M252.57,848.79c.58-.8,1.74-.91,2.69-.23,.96,.69,1.23,1.81,.66,2.62-.57,.8-1.73,.92-2.7,.23-.97-.69-1.24-1.83-.66-2.63Z"/>
          <path class="cls-2" d="M261.48,854.46c.9,.05,1.8,.09,2.71,.13-.01,1.01,.41,1.77,1.05,2.19,1.01,.68,1.84,.61,2.75-.76,1.47-2.23,2.95-4.45,4.42-6.68,.92,.61,1.85,1.22,2.77,1.82-1.5,2.3-2.99,4.6-4.49,6.91-1.29,1.99-3.63,2.82-6.42,.96-1.93-1.29-2.77-2.76-2.79-4.58Z"/>
          <path class="cls-2" d="M272.1,860.78c1.07-1.67,3.25-1.53,7.25,.5,.38-.73,.24-1.45-.8-2.1-.8-.5-1.78-.72-2.98-.88,0-.73-.01-1.45-.02-2.18,1.6,.16,3.22,.59,4.72,1.52,2.43,1.51,3.07,3.51,1.58,5.97-.93,1.53-1.86,3.06-2.8,4.59-.79-.48-1.58-.96-2.36-1.45,.1-.32,.2-.63,.3-.95-.02-.01-.05-.03-.07-.04-1.19,.08-2.37-.07-3.46-.76-1.77-1.12-2.22-2.89-1.36-4.22Zm5.5,3.32c.29-.47,.58-.93,.87-1.4-2.17-1.03-3.14-.98-3.52-.38-.32,.51-.05,1.03,.63,1.46,.65,.41,1.25,.41,2.02,.31Z"/>
          <path class="cls-2" d="M283.29,866.77c.65-1.09,1.3-2.17,1.95-3.26-.44-.26-.88-.53-1.32-.79,.36-.59,.72-1.19,1.08-1.78,.51,.27,1.02,.53,1.53,.79,.54-.65,1.08-1.3,1.61-1.94,.78,.47,1.56,.93,2.35,1.39-.42,.72-.84,1.43-1.27,2.15,.77,.45,1.54,.9,2.32,1.35-.37,.63-.73,1.26-1.1,1.89-.78-.45-1.55-.9-2.33-1.36-.64,1.08-1.27,2.16-1.91,3.24-.54,.92-.25,1.58,.51,2.03,.32,.19,.72,.32,1.02,.39-.19,.67-.37,1.34-.55,2.02-.6-.17-1.41-.42-2.37-.99-2.44-1.43-2.65-3.28-1.53-5.14Z"/>
          <path class="cls-2" d="M294.62,863.2c.43-.74,1.42-.86,2.37-.32,.95,.54,1.36,1.46,.94,2.2-.41,.74-1.41,.88-2.38,.33-.96-.55-1.36-1.47-.93-2.21Zm-1.19,2.58c.96,.55,1.92,1.09,2.88,1.63-1.54,2.73-3.07,5.46-4.61,8.19-.98-.55-1.96-1.11-2.94-1.67,1.56-2.72,3.12-5.43,4.68-8.15Z"/>
          <path class="cls-2" d="M298.85,868.82c.79,.43,1.58,.87,2.36,1.3-.08,.31-.16,.62-.23,.92,.02,.01,.05,.03,.07,.04,1.09-.16,2.32-.05,3.34,.49,2.38,1.27,2.97,3.69,1.64,6.26-1.49,2.86-4.41,3.43-6.59,2.27-.87-.46-1.51-1.21-1.93-2.15-.2,.45-.41,.91-.61,1.36-.44,.81-.88,1.61-1.32,2.42-1-.54-1.99-1.09-2.99-1.64,2.08-3.76,4.16-7.51,6.24-11.27Zm4.14,7.45c.79-1.49,.64-2.52-.53-3.15-.6-.32-1.24-.38-2.1-.17-.61,1.13-1.23,2.26-1.84,3.39,.33,.68,.81,1.11,1.31,1.38,1.03,.55,2.25,.27,3.16-1.45Z"/>
          <path class="cls-2" d="M306.41,880.55c.91-1.76,3.07-1.83,7.21-.22,.31-.77,.11-1.46-.98-2-.84-.42-1.82-.54-3.03-.58-.07-.72-.14-1.44-.21-2.16,1.59,0,3.24,.26,4.8,1.04,2.54,1.26,3.35,3.18,2.09,5.77-.79,1.61-1.57,3.22-2.36,4.83-.82-.4-1.64-.8-2.47-1.21,.07-.32,.14-.65,.21-.97-.02-.01-.05-.02-.08-.04-1.16,.2-2.35,.16-3.49-.41-1.85-.94-2.45-2.65-1.72-4.06Zm5.74,2.76c.24-.49,.49-.98,.73-1.47-2.24-.81-3.19-.66-3.51-.03-.27,.54,.04,1.03,.75,1.39,.68,.34,1.27,.29,2.03,.11Z"/>
          <path class="cls-2" d="M318.01,883.98c1.34-2.77,4.19-3.46,6.3-2.48,1.11,.52,1.62,1.18,2.06,2.03,.16-.45,.33-.89,.49-1.34,.45-.97,.89-1.94,1.34-2.91,.99,.45,1.97,.9,2.96,1.34-1.82,4.03-3.64,8.06-5.46,12.1-.83-.37-1.66-.75-2.5-1.13,.06-.32,.11-.63,.17-.95-.03-.01-.05-.02-.08-.03-1,.27-2.23,.25-3.22-.21-2.56-1.19-3.4-3.66-2.06-6.42Zm5.84,4.72c.54-1.17,1.08-2.34,1.61-3.5-.35-.64-.88-1.06-1.43-1.31-.97-.45-2.17-.09-2.94,1.52-.79,1.67-.45,2.75,.73,3.29,.65,.3,1.26,.34,2.02,0Z"/>
          <path class="cls-2" d="M328.97,891.32c.81-1.81,2.95-2.02,7.16-.66,.26-.78,.02-1.46-1.08-1.94-.86-.37-1.84-.43-3.04-.39-.11-.71-.22-1.43-.33-2.14,1.58-.1,3.24,.07,4.83,.75,2.6,1.11,3.52,2.96,2.41,5.62-.69,1.65-1.38,3.3-2.07,4.96-.84-.35-1.68-.7-2.52-1.05,.05-.33,.1-.65,.15-.98-.03-.01-.05-.02-.08-.03-1.15,.27-2.33,.31-3.49-.2-1.9-.82-2.59-2.49-1.94-3.94Zm5.86,2.4c.21-.5,.43-1.01,.64-1.51-2.28-.67-3.21-.47-3.49,.19-.24,.56,.1,1.03,.83,1.34,.69,.3,1.28,.21,2.02-.01Z"/>
          <path class="cls-2" d="M343.01,889.89c.82,.33,1.65,.67,2.48,1-.07,.4-.15,.79-.22,1.19,.03,.01,.05,.02,.08,.03,1.15-.36,2.43-.56,3.83-.02,2.23,.87,2.68,2.57,1.84,4.76-.69,1.82-1.39,3.63-2.08,5.45-1.04-.39-2.08-.79-3.12-1.2,.66-1.7,1.33-3.4,1.99-5.1,.49-1.26,.25-1.81-.64-2.15-.77-.3-1.36-.18-2.25,.09-.79,1.96-1.57,3.92-2.36,5.88-1.04-.41-2.07-.83-3.1-1.25,1.19-2.9,2.37-5.8,3.56-8.69Z"/>
          <path class="cls-2" d="M350.36,904.56c.27-.73,1.02-1.12,2.16-1.22,0-.02,.02-.05,.03-.07-.43-.51-.68-1.12-.4-1.85,.24-.63,.97-1.07,1.79-1.22,0-.02,.02-.05,.03-.07-.58-.7-.94-1.77-.55-2.8,.8-2.11,3.25-2.42,5.47-1.62,.58,.21,1.11,.49,1.53,.79,1.27,.45,2.53,.89,3.8,1.33-.22,.64-.44,1.28-.67,1.92-.56-.19-1.12-.39-1.68-.58,.1,.33,.11,.83-.06,1.29-.71,2.04-2.89,2.34-5.2,1.51-.38-.14-.8-.35-1.22-.64-.33,.1-.49,.21-.61,.52-.16,.43,.19,.8,1.34,1.22,.57,.21,1.14,.41,1.71,.61,2.59,.92,3.81,2.08,3.26,3.67-.63,1.84-3.43,2.4-7.11,1.08-2.49-.9-4.22-2.3-3.63-3.87Zm7.56,2.19c.2-.56-.33-.89-1.38-1.26-.37-.13-.73-.26-1.1-.39-.73-.26-1.13-.45-1.45-.65-.49,.13-.77,.34-.89,.66-.25,.67,.56,1.35,1.99,1.87,1.42,.51,2.61,.4,2.83-.22Zm1.23-7.33c.34-.94-.09-1.65-.91-1.95-.82-.29-1.6-.02-1.95,.92-.35,.96,.07,1.69,.89,1.99,.82,.29,1.61,0,1.96-.96Z"/>
          <path class="cls-2" d="M371.43,897.15c1.64,.53,3.28,1.06,4.92,1.57,2.9,.91,5.02,2.48,4.18,5.29-.81,2.72-3.6,3.17-6.56,2.24-.62-.19-1.25-.39-1.87-.59-.45,1.41-.91,2.82-1.36,4.23-1.06-.34-2.12-.68-3.18-1.02,1.29-3.91,2.58-7.81,3.86-11.72Zm2.95,6.91c1.65,.52,2.73,.19,3.08-.97,.36-1.17-.4-1.82-2.04-2.33-.53-.17-1.06-.33-1.59-.5-.35,1.1-.71,2.2-1.06,3.3,.53,.17,1.07,.34,1.6,.51Zm-.77,1.31c.91-.34,1.81-.68,2.71-1.03,.79,2.67,1.6,5.34,2.44,8.01-1.19-.35-2.38-.71-3.58-1.08-.54-1.97-1.06-3.94-1.57-5.91Z"/>
          <path class="cls-2" d="M380.64,910.18c.57-1.9,2.65-2.39,6.97-1.59,.16-.81-.16-1.45-1.31-1.78-.89-.25-1.87-.18-3.05,.01-.2-.69-.4-1.38-.6-2.08,1.55-.31,3.2-.36,4.86,.1,2.7,.75,3.84,2.47,3.09,5.25-.47,1.73-.94,3.45-1.41,5.18-.87-.23-1.75-.47-2.62-.71,0-.33,.02-.66,.03-.99-.03,0-.05-.01-.08-.02-1.1,.42-2.25,.61-3.47,.26-1.97-.56-2.86-2.13-2.41-3.64Zm6.08,1.6c.15-.53,.3-1.05,.44-1.58-2.33-.37-3.22-.04-3.42,.64-.17,.58,.23,1,.98,1.22,.72,.2,1.29,.04,1.99-.28Z"/>
          <path class="cls-2" d="M390.66,919.28c.37-.63,.75-1.27,1.12-1.9,.19,.1,.47,.25,.7,.31,1.06,.28,1.75-.07,2.21-.7,.09-.14,.19-.29,.28-.43-.64-3.31-1.24-6.62-1.82-9.92,1.05,.28,2.11,.55,3.16,.82,.17,1.43,.34,2.87,.52,4.3,.1,.9,.14,1.83,.19,2.79,.03,0,.06,.01,.09,.02,.46-.8,.92-1.61,1.4-2.39,.76-1.2,1.52-2.4,2.28-3.6,1.01,.25,2.01,.49,3.02,.73-1.97,2.78-3.97,5.56-6,8.32-1.6,2.03-3.08,2.92-5.65,2.26-.68-.18-1.1-.36-1.51-.59Z"/>
          <path class="cls-2" d="M402.98,916.07c.46-1.93,2.51-2.53,6.86-1.97,.11-.82-.24-1.44-1.4-1.7-.9-.2-1.87-.08-3.03,.18-.24-.68-.48-1.36-.71-2.04,1.53-.39,3.17-.54,4.85-.16,2.73,.61,3.96,2.26,3.36,5.08-.38,1.75-.75,3.5-1.13,5.25-.88-.19-1.77-.38-2.65-.57,0-.33-.02-.66-.03-.99-.03,0-.05-.01-.08-.02-1.07,.48-2.21,.73-3.44,.45-2-.45-2.97-1.97-2.6-3.51Zm6.14,1.27c.12-.53,.24-1.07,.36-1.6-2.34-.24-3.21,.13-3.37,.83-.14,.59,.28,.99,1.05,1.16,.73,.16,1.29-.03,1.97-.39Z"/>
          <path class="cls-2" d="M421.56,910.1c1.68,.32,3.37,.64,5.05,.94,2.98,.54,5.27,1.84,4.79,4.73-.47,2.8-3.17,3.59-6.21,3.04-.64-.12-1.28-.23-1.92-.35-.27,1.45-.55,2.91-.82,4.36-1.09-.2-2.18-.41-3.27-.62,.79-4.04,1.58-8.07,2.37-12.11Zm3.77,6.49c1.69,.31,2.71-.16,2.93-1.35,.21-1.2-.62-1.76-2.3-2.06-.54-.1-1.09-.2-1.63-.3-.21,1.14-.43,2.27-.64,3.41,.55,.1,1.1,.2,1.65,.3Zm-.59,1.4c.85-.45,1.7-.9,2.55-1.36,1.11,2.55,2.24,5.1,3.4,7.64-1.22-.2-2.44-.41-3.67-.62-.77-1.89-1.53-3.77-2.28-5.66Z"/>
          <path class="cls-2" d="M436.79,915.11c-1.3-.2-2.6-.41-3.9-.62,.13-.77,.26-1.54,.38-2.31,3.64,.6,7.3,1.14,10.95,1.64-.11,.77-.21,1.54-.32,2.32-1.3-.18-2.61-.36-3.91-.55-.49,3.3-.98,6.59-1.47,9.89-1.1-.16-2.19-.32-3.28-.49,.52-3.29,1.03-6.58,1.55-9.88Z"/>
          <path class="cls-2" d="M449.12,920.79c.51-4.06,2.74-5.89,5.7-5.56,2.96,.33,4.72,2.61,4.32,6.67-.4,4.07-2.66,6.06-5.72,5.72-3.06-.34-4.82-2.78-4.31-6.83Zm6.95,.8c.35-3.26-.41-4.1-1.49-4.22-1.08-.12-2.01,.53-2.39,3.79-.38,3.26,.38,4.21,1.48,4.33,1.1,.12,2.06-.64,2.41-3.9Z"/>
          <path class="cls-2" d="M467.52,919.02c-2.08-.17-4.16-.35-6.24-.54,.07-.78,.15-1.55,.22-2.33,3.21,.3,6.42,.57,9.64,.8-.04,.57-.08,1.14-.12,1.71-3.48,3.11-4.13,5.32-4.77,9.97-1.1-.09-2.21-.18-3.31-.28,.62-3.96,1.7-6.4,4.59-9.33Z"/>
          <path class="cls-2" d="M476.82,915.89c.7,.04,1.39,.08,2.09,.12-1.76,5.4-3.57,10.79-5.45,16.17-.72-.05-1.45-.09-2.17-.14,1.9-5.37,3.74-10.75,5.53-16.14Z"/>
          <path class="cls-2" d="M479.96,923.44c.21-4.08,2.3-6.07,5.27-5.96,2.97,.11,4.9,2.27,4.8,6.34-.1,4.09-2.2,6.24-5.28,6.12-3.08-.12-5.01-2.42-4.79-6.5Zm6.99,.29c.11-3.28-.71-4.06-1.8-4.1-1.09-.04-1.96,.67-2.11,3.95-.14,3.28,.68,4.17,1.79,4.21,1.11,.04,2-.79,2.11-4.07Z"/>
          <path class="cls-2" d="M491.22,928.44c.52-.57,1.04-1.15,1.55-1.72,.85,.72,1.9,1.25,3.09,1.26,1.39,.02,2.32-.49,2.32-1.41,0-1.06-.71-1.7-3.78-1.75,.01-.66,.02-1.31,.03-1.97,2.53,.04,3.32-.62,3.33-1.57,0-.85-.62-1.33-1.71-1.34-.99-.01-1.75,.36-2.63,1.01-.54-.57-1.07-1.15-1.6-1.73,1.3-.92,2.71-1.48,4.4-1.46,2.88,.03,4.78,1.21,4.79,3.33,0,1.24-.83,2.13-2.35,2.66,0,.03,0,.05,0,.08,1.62,.41,2.81,1.38,2.81,2.94,0,2.24-2.43,3.5-5.31,3.47-2.32-.03-3.92-.75-4.94-1.79Z"/>
          <path class="cls-2" d="M508.59,917.64c1.1-.02,2.2-.04,3.3-.07,1.29,2.01,2.6,4.02,3.93,6.02,.51,.89,1.02,1.77,1.53,2.66,.03,0,.06,0,.09,0-.2-1.3-.53-3.01-.59-4.47-.05-1.45-.11-2.9-.16-4.35,1.02-.04,2.04-.08,3.07-.12,.18,4.11,.37,8.21,.55,12.32-1.13,.05-2.26,.1-3.4,.14-1.35-2-2.68-4.01-4-6.02-.5-.88-1-1.77-1.5-2.66-.03,0-.06,0-.09,0,.19,1.36,.49,3,.53,4.45,.04,1.46,.07,2.92,.11,4.38-1.05,.03-2.11,.05-3.16,.07-.07-4.11-.15-8.22-.22-12.33Z"/>
          <path class="cls-2" d="M522.6,924.81c-.15-3.12,2.31-5.04,5.06-5.22,2.75-.17,5.43,1.43,5.68,4.54,.24,3.1-2.23,5.1-5.05,5.28-2.83,.18-5.53-1.49-5.68-4.61Zm7.39-.43c-.11-1.62-.85-2.63-2.19-2.54-1.34,.08-1.95,1.17-1.85,2.8,.09,1.62,.83,2.63,2.19,2.55,1.36-.09,1.97-1.18,1.85-2.8Z"/>
          <path class="cls-2" d="M535.53,927.15c-.08-.99,.7-1.82,1.83-1.91,1.13-.1,2.04,.59,2.13,1.58,.09,.98-.69,1.82-1.83,1.91-1.14,.1-2.05-.6-2.13-1.58Z"/>
          <path class="cls-2" d="M546.8,925.37c1.03-.11,2.06-.22,3.09-.34-.27-2.3-.53-4.6-.8-6.91-.87,.1-1.74,.19-2.61,.29-.06-.57-.12-1.14-.19-1.72,1.46-.4,2.4-.84,3.31-1.47,.79-.09,1.57-.18,2.36-.28,.4,3.23,.8,6.47,1.2,9.7,.88-.11,1.76-.22,2.64-.33,.1,.74,.19,1.48,.29,2.23-3.01,.38-6.03,.74-9.05,1.06-.08-.74-.16-1.49-.24-2.23Z"/>
          <path class="cls-2" d="M557.91,924.7c3.21-3.34,5.39-5.75,5.14-7.45-.17-1.15-1.01-1.67-2.23-1.5-.98,.14-1.68,.83-2.29,1.55-.65-.42-1.3-.83-1.94-1.25,1.19-1.43,2.39-2.24,4.36-2.52,2.71-.39,4.79,.81,5.15,3.1,.32,2-1.54,4.47-3.55,6.81,.72-.17,1.69-.38,2.34-.48,.94-.14,1.89-.29,2.83-.43,.12,.77,.24,1.54,.37,2.31-3.32,.52-6.64,1-9.96,1.44-.07-.53-.14-1.05-.21-1.58Z"/>
          <path class="cls-2" d="M570.45,926.69c1.58-.75,2.3-1.77,2.12-2.73-.12-.61-.24-1.22-.37-1.83,.44,.45,.88,.91,1.33,1.36-.28,.29-.68,.47-1.13,.54-1.03,.17-2.07-.24-2.23-1.24-.15-.94,.65-1.71,1.77-1.9,1.45-.24,2.41,.59,2.7,2.22,.36,2.03-.78,3.84-3.28,4.93-.31-.45-.61-.9-.92-1.35Z"/>
          <path class="cls-2" d="M580.16,920.74c.65-.6,1.3-1.2,1.94-1.8,.69,.73,1.5,.97,2.24,.82,1.16-.23,1.68-.86,1.35-2.47-.53-2.61-1.07-5.23-1.6-7.84,1.06-.21,2.11-.43,3.16-.65,.57,2.68,1.14,5.37,1.71,8.05,.5,2.32-.53,4.54-3.73,5.18-2.21,.44-3.8-.01-5.08-1.3Z"/>
          <path class="cls-2" d="M591.81,917.79c-.42-1.94,1.17-3.36,5.33-4.72-.25-.79-.84-1.2-2.01-.93-.9,.2-1.73,.73-2.66,1.46-.51-.51-1.02-1.02-1.53-1.54,1.21-1.01,2.62-1.84,4.3-2.22,2.73-.62,4.56,.34,5.24,3.14,.42,1.74,.84,3.48,1.27,5.22-.88,.21-1.76,.42-2.64,.62-.15-.29-.3-.59-.45-.88-.03,0-.05,.01-.08,.02-.76,.89-1.68,1.61-2.91,1.88-2,.45-3.53-.5-3.87-2.05Zm6.09-1.49c-.12-.53-.25-1.06-.37-1.6-2.22,.79-2.84,1.5-2.68,2.19,.13,.59,.68,.77,1.45,.6,.73-.17,1.15-.58,1.61-1.19Z"/>
          <path class="cls-2" d="M603.68,914.22c-.31-1.23-.61-2.45-.92-3.68-.49,.12-.97,.24-1.46,.36-.17-.67-.33-1.34-.5-2.02,.54-.17,1.07-.33,1.61-.5-.08-.84-.16-1.67-.24-2.51,.86-.21,1.73-.43,2.59-.65,.21,.81,.42,1.61,.62,2.42,.85-.22,1.7-.43,2.55-.66,.19,.7,.37,1.41,.56,2.11-.85,.22-1.71,.44-2.56,.66,.31,1.21,.63,2.43,.94,3.64,.27,1.03,.93,1.3,1.77,1.09,.36-.09,.72-.28,.98-.44,.34,.61,.68,1.21,1.02,1.82-.54,.3-1.27,.68-2.33,.95-2.69,.69-4.11-.48-4.64-2.59Z"/>
          <path class="cls-2" d="M609.02,903.76c-.22-.82,.38-1.61,1.42-1.89,1.04-.28,1.96,.09,2.19,.91,.23,.81-.37,1.61-1.42,1.9-1.05,.28-1.97-.1-2.19-.92Zm.98,2.67c1.05-.28,2.09-.56,3.14-.85,.84,3.02,1.68,6.03,2.52,9.05-1.07,.29-2.14,.58-3.21,.87-.82-3.02-1.63-6.04-2.45-9.07Z"/>
          <path class="cls-2" d="M619.56,900.68c1.57-.46,3.15-.94,4.71-1.42,3.01-.93,5.73-.79,6.67,2.06,.9,2.76-1.2,4.79-4.16,5.7-.58,.18-1.15,.35-1.73,.53,.41,1.33,.82,2.67,1.23,4-1.06,.32-2.13,.64-3.2,.95-1.17-3.94-2.35-7.88-3.52-11.83Zm6.38,4.28c1.73-.53,2.34-1.44,1.95-2.67-.39-1.23-1.45-1.38-3.14-.86-.48,.15-.96,.29-1.44,.44,.36,1.19,.73,2.37,1.09,3.56,.51-.16,1.02-.31,1.53-.47Z"/>
          <path class="cls-2" d="M633.68,906.5c-.62-1.88,.83-3.46,4.85-5.25-.33-.76-.96-1.1-2.1-.72-.88,.3-1.65,.9-2.51,1.73-.56-.46-1.12-.91-1.68-1.37,1.1-1.13,2.43-2.1,4.07-2.66,2.66-.9,4.59-.13,5.55,2.58,.6,1.69,1.2,3.37,1.79,5.06-.86,.3-1.71,.6-2.57,.89-.18-.28-.36-.55-.54-.83-.03,0-.05,.02-.08,.03-.67,.96-1.51,1.77-2.71,2.17-1.95,.65-3.58-.14-4.07-1.64Zm5.93-2.11c-.18-.52-.36-1.03-.54-1.55-2.13,1.01-2.68,1.78-2.46,2.46,.19,.57,.76,.7,1.51,.45,.71-.24,1.09-.7,1.49-1.35Z"/>
          <path class="cls-2" d="M644.16,900.73c-1.04-2.89,.45-5.39,2.63-6.19,1.14-.42,1.97-.32,2.88-.03-.2-.43-.41-.86-.61-1.29-.38-1-.76-2-1.14-2.99,1.01-.38,2.02-.76,3.03-1.15,1.6,4.12,3.2,8.24,4.8,12.37-.85,.33-1.7,.65-2.55,.97-.19-.26-.37-.52-.56-.79-.03,0-.05,.02-.08,.03-.51,.9-1.38,1.75-2.4,2.13-2.63,.97-4.97-.17-6-3.06Zm7.43-.8c-.46-1.2-.91-2.4-1.37-3.61-.7-.21-1.36-.12-1.93,.09-1,.37-1.58,1.47-.97,3.15,.64,1.73,1.64,2.25,2.85,1.8,.66-.25,1.12-.66,1.42-1.43Z"/>
          <path class="cls-2" d="M657.04,898.14c-.73-1.85,.63-3.51,4.56-5.53-.37-.74-1.03-1.05-2.14-.59-.86,.35-1.6,1-2.41,1.88-.59-.42-1.18-.85-1.76-1.27,1.04-1.19,2.31-2.24,3.92-2.9,2.61-1.06,4.59-.41,5.71,2.25,.7,1.65,1.39,3.3,2.09,4.95-.84,.35-1.68,.7-2.52,1.05-.2-.27-.39-.53-.59-.8-.03,.01-.05,.02-.08,.03-.61,1-1.41,1.86-2.59,2.33-1.91,.77-3.59,.08-4.17-1.39Zm5.82-2.46c-.21-.51-.42-1.01-.63-1.52-2.08,1.14-2.58,1.94-2.32,2.6,.23,.56,.8,.65,1.53,.36,.7-.28,1.05-.76,1.41-1.44Z"/>
          <path class="cls-2" d="M665.88,887.19c.82-.35,1.64-.7,2.46-1.06,.23,.33,.46,.66,.69,1,.03-.01,.05-.02,.08-.03,.55-1.07,1.31-2.12,2.68-2.73,2.2-.98,3.73-.1,4.71,2.04,.81,1.77,1.62,3.54,2.43,5.3-1.02,.46-2.04,.92-3.06,1.38-.75-1.67-1.49-3.33-2.24-5-.55-1.23-1.12-1.44-1.99-1.06-.76,.33-1.09,.83-1.52,1.66,.85,1.94,1.7,3.87,2.55,5.81-1.02,.45-2.05,.89-3.08,1.33-1.24-2.88-2.47-5.76-3.71-8.63Z"/>
          <path class="cls-2" d="M681.56,892.28c-.33-.71-.08-1.52,.66-2.39-.01-.02-.02-.05-.03-.07-.67-.05-1.28-.31-1.61-1.01-.29-.61-.08-1.44,.39-2.12-.01-.02-.02-.05-.03-.07-.91-.08-1.93-.58-2.4-1.57-.95-2.05,.56-4,2.72-5.03,.56-.27,1.14-.45,1.65-.54,1.22-.59,2.44-1.18,3.65-1.78,.3,.61,.6,1.21,.9,1.82-.54,.26-1.07,.53-1.61,.79,.31,.16,.67,.5,.89,.94,.96,1.94-.38,3.7-2.61,4.76-.37,.18-.82,.32-1.32,.42-.16,.3-.2,.5-.06,.8,.2,.42,.71,.43,1.82-.1,.55-.26,1.1-.53,1.65-.79,2.5-1.2,4.19-1.26,4.94,.25,.87,1.74-.72,4.13-4.27,5.82-2.41,1.14-4.64,1.39-5.34-.13Zm6.92-3.84c-.26-.53-.87-.39-1.88,.1-.35,.17-.71,.34-1.06,.51-.7,.33-1.12,.49-1.49,.57-.25,.44-.31,.79-.16,1.09,.3,.65,1.37,.55,2.75-.11,1.38-.66,2.13-1.58,1.85-2.17Zm-4.38-6.02c-.44-.9-1.25-1.1-2.04-.72-.79,.38-1.15,1.12-.72,2.03,.44,.93,1.26,1.13,2.05,.76,.79-.38,1.15-1.14,.7-2.07Z"/>
          <path class="cls-2" d="M693.13,887.39c1.31-1.2,1.71-2.4,1.25-3.25-.3-.55-.6-1.09-.89-1.64,.56,.3,1.12,.6,1.69,.89-.19,.36-.52,.66-.93,.86-.95,.48-2.07,.4-2.53-.51-.43-.85,.13-1.84,1.16-2.36,1.33-.67,2.51-.17,3.27,1.3,.95,1.84,.38,3.91-1.72,5.71-.43-.34-.86-.68-1.29-1.02Z"/>
          <path class="cls-2" d="M697.12,868.96c1.47-.78,2.93-1.58,4.39-2.38,2.8-1.54,5.53-1.98,7.02,.62,1.44,2.52-.24,4.96-3,6.47-.54,.29-1.07,.59-1.61,.88,.67,1.23,1.34,2.45,2.01,3.68-.99,.54-1.98,1.08-2.98,1.61-1.94-3.63-3.89-7.25-5.83-10.88Zm7.17,2.87c1.61-.89,2.03-1.91,1.4-3.03-.63-1.13-1.71-1.05-3.28-.19-.45,.24-.89,.49-1.34,.73,.6,1.09,1.19,2.18,1.79,3.27,.48-.26,.95-.52,1.43-.78Z"/>
          <path class="cls-2" d="M712.26,871.72c-.98-1.72,.13-3.58,3.77-6.18-.48-.67-1.17-.88-2.22-.26-.81,.48-1.46,1.24-2.15,2.23-.65-.33-1.29-.66-1.94-.99,.87-1.34,2-2.58,3.51-3.47,2.46-1.45,4.53-1.1,6.02,1.36,.93,1.53,1.85,3.07,2.78,4.6-.79,.48-1.58,.95-2.38,1.42-.23-.23-.47-.47-.7-.7-.02,.01-.05,.03-.07,.04-.47,1.09-1.15,2.06-2.26,2.71-1.81,1.05-3.58,.62-4.36-.75Zm5.47-3.33c-.28-.47-.56-.94-.84-1.41-1.92,1.45-2.31,2.32-1.95,2.94,.31,.52,.89,.53,1.58,.12,.66-.39,.94-.92,1.21-1.65Z"/>
          <path class="cls-2" d="M723.04,867.12c.13-.76,.26-1.52,.39-2.27,1.22,0,2.21-.2,3.02-.71,.85-.53,1.05-1.04,.79-1.45-.33-.52-1.44-.16-2.63,.14-1.42,.36-3.19,.55-4-.78-.91-1.49-.08-3.39,2.11-4.76,1.46-.91,2.85-1.11,3.98-1.11-.12,.74-.24,1.48-.36,2.22-.94,.02-1.78,.17-2.44,.59-.73,.46-.94,.92-.7,1.32,.32,.51,1.34,.14,2.52-.18,1.45-.39,3.17-.7,4.1,.75,.92,1.43,.26,3.44-2.36,5.07-1.28,.8-3.04,1.25-4.43,1.19Z"/>
          <path class="cls-2" d="M731.29,860.15c-1.07-1.67-.04-3.59,3.47-6.4-.51-.65-1.22-.82-2.24-.14-.79,.52-1.4,1.32-2.04,2.35-.67-.29-1.33-.59-1.99-.89,.8-1.39,1.87-2.69,3.35-3.67,2.39-1.59,4.48-1.36,6.1,1.02,1.01,1.48,2.01,2.96,3.02,4.45-.77,.52-1.54,1.04-2.31,1.56-.25-.22-.49-.44-.74-.66-.02,.02-.05,.03-.07,.05-.42,1.12-1.05,2.13-2.13,2.84-1.76,1.15-3.56,.82-4.41-.51Zm5.32-3.64c-.3-.46-.61-.91-.91-1.37-1.85,1.56-2.2,2.45-1.81,3.05,.33,.51,.92,.48,1.59,.03,.64-.42,.9-.97,1.13-1.72Z"/>
          <path class="cls-2" d="M737.99,847.51c.75-.52,1.5-1.04,2.24-1.56,.38,.4,.76,.81,1.14,1.21,.02-.02,.05-.03,.07-.05-.04-1.5,.61-2.72,1.55-3.38,.53-.38,.87-.54,1.21-.63,.32,.76,.63,1.52,.94,2.28-.38,.17-.69,.31-1.09,.59-.7,.5-1.28,1.47-1.05,2.87,1.04,1.49,2.08,2.97,3.12,4.46-.93,.66-1.87,1.31-2.81,1.96-1.78-2.58-3.55-5.16-5.33-7.74Z"/>
          <path class="cls-2" d="M747.56,837.04c.98-.72,1.95-1.45,2.92-2.19,1.74,.98,3.49,1.95,5.24,2.91,.68,.4,1.37,.86,2.07,1.28,.02-.02,.05-.04,.07-.06-.22-.79-.5-1.57-.71-2.33-.49-1.93-.99-3.86-1.5-5.78,.96-.75,1.92-1.51,2.88-2.27,2.55,3.23,5.11,6.45,7.66,9.68-.82,.65-1.65,1.31-2.47,1.95-.93-1.19-1.86-2.38-2.79-3.57-.74-.95-1.63-2.54-2.24-3.57-.02,.02-.05,.04-.07,.06,.28,1.02,.55,2.04,.82,3.06,.41,1.68,.81,3.37,1.2,5.06-.51,.39-1.01,.78-1.52,1.16-1.53-.82-3.05-1.64-4.56-2.47-.91-.54-1.81-1.08-2.71-1.62-.02,.02-.05,.04-.07,.06,.84,.86,2.14,2.13,2.86,3.1,.91,1.21,1.81,2.42,2.72,3.62-.82,.62-1.65,1.24-2.48,1.85-2.45-3.31-4.89-6.62-7.34-9.93Z"/>
          <path class="cls-2" d="M760.93,826.84c-.53-.67-.28-1.65,.59-2.36,.87-.71,1.88-.76,2.42-.1,.54,.65,.29,1.65-.59,2.36-.88,.72-1.9,.76-2.43,.1Zm1.98,2.04c.88-.71,1.75-1.42,2.62-2.14l5.95,7.27c-.89,.73-1.79,1.46-2.68,2.19-1.96-2.44-3.93-4.88-5.89-7.32Z"/>
          <path class="cls-2" d="M767.82,824.85c.71-.59,1.42-1.19,2.12-1.78,.32,.25,.64,.5,.95,.75,.02-.02,.04-.04,.06-.05,.25-1.21,.7-2.46,1.89-3.48,1.89-1.63,3.63-1.25,5.18,.52,1.28,1.47,2.56,2.93,3.84,4.4-.87,.77-1.75,1.53-2.63,2.29-1.19-1.39-2.38-2.77-3.57-4.16-.88-1.03-1.49-1.05-2.24-.41-.65,.56-.84,1.15-1.04,2.08,1.36,1.62,2.73,3.23,4.09,4.85-.88,.75-1.77,1.49-2.66,2.24-2-2.41-4-4.82-6-7.23Z"/>
          <path class="cls-2" d="M784.6,824.93c-.52-.59-.49-1.45,0-2.53-.02-.02-.03-.04-.05-.06-.67,.16-1.34,.1-1.86-.48-.45-.51-.47-1.37-.2-2.18-.02-.02-.03-.04-.05-.06-.92,.2-2.06,.04-2.78-.78-1.49-1.69-.54-4.06,1.29-5.73,.48-.43,.99-.79,1.47-1.04,1.04-.95,2.07-1.91,3.1-2.87,.46,.49,.92,.99,1.38,1.48-.45,.43-.91,.85-1.37,1.27,.35,.06,.79,.28,1.13,.64,1.47,1.59,.64,3.72-1.26,5.45-.32,.29-.71,.57-1.18,.82-.08,.34-.06,.55,.16,.79,.31,.34,.81,.2,1.76-.67,.47-.43,.94-.86,1.41-1.29,2.12-1.95,3.77-2.54,4.92-1.31,1.33,1.42,.42,4.24-2.6,7-2.05,1.86-4.17,2.79-5.28,1.54Zm5.74-5.9c-.4-.44-.96-.1-1.82,.68-.3,.28-.6,.55-.91,.83-.6,.54-.97,.83-1.31,1.02-.13,.51-.08,.86,.14,1.11,.48,.53,1.49,.11,2.67-.96,1.17-1.07,1.66-2.21,1.22-2.68Zm-5.94-4.48c-.67-.74-1.52-.68-2.2-.06-.67,.61-.82,1.45-.15,2.2,.69,.77,1.55,.71,2.22,.1,.67-.61,.82-1.47,.12-2.23Z"/>
          <path class="cls-2" d="M794,816.32c-.53-.57-.53-1.43-.07-2.53-.02-.02-.03-.04-.05-.05-.67,.18-1.34,.15-1.88-.42-.46-.49-.51-1.36-.26-2.18-.02-.02-.03-.04-.05-.06-.92,.24-2.06,.11-2.81-.69-1.54-1.65-.65-4.06,1.14-5.79,.47-.45,.97-.83,1.45-1.09,1.01-.99,2.02-1.98,3.03-2.99,.47,.48,.95,.96,1.43,1.44-.44,.44-.89,.88-1.33,1.32,.35,.05,.8,.25,1.15,.6,1.52,1.54,.74,3.71-1.11,5.5-.31,.3-.7,.59-1.16,.87-.07,.35-.04,.55,.19,.79,.32,.34,.82,.17,1.75-.73,.46-.44,.92-.89,1.38-1.34,2.07-2.03,3.71-2.67,4.9-1.48,1.37,1.38,.54,4.24-2.42,7.1-2,1.94-4.11,2.94-5.25,1.72Zm5.6-6.1c-.41-.42-.97-.07-1.8,.74-.29,.29-.59,.57-.89,.86-.59,.57-.95,.86-1.28,1.07-.11,.52-.06,.87,.17,1.11,.49,.52,1.5,.06,2.65-1.05,1.15-1.11,1.61-2.27,1.15-2.73Zm-6.08-4.29c-.7-.72-1.55-.63-2.21,.01-.66,.64-.78,1.48-.09,2.21,.71,.74,1.57,.66,2.23,.02,.66-.64,.78-1.5,.06-2.24Z"/>
          <path class="cls-2" d="M799.99,803.27c-1.37-1.38-2.74-2.75-4.12-4.13,.81-.82,1.62-1.64,2.43-2.46,1.3,1.28,2.6,2.56,3.9,3.84,.96,.95,1.58,.92,2.29,.19,.62-.64,.78-1.23,.73-2.24-1.49-1.44-2.97-2.89-4.46-4.33,.8-.83,1.6-1.67,2.39-2.51,2.27,2.16,4.53,4.32,6.8,6.48-.66,.7-1.33,1.4-2,2.1-.37-.24-.74-.48-1.11-.72-.02,.02-.04,.04-.06,.06-.02,1.37-.38,2.6-1.51,3.76-1.82,1.86-3.62,1.62-5.27-.05Z"/>
          <path class="cls-2" d="M813.37,797.68c.88-1.65,.87-2.96,.14-3.6-.47-.41-.94-.82-1.4-1.23,.64,.07,1.28,.14,1.93,.21-.07,.42-.29,.83-.62,1.19-.76,.83-1.88,1.18-2.62,.49-.69-.65-.48-1.81,.35-2.71,1.07-1.16,2.38-1.13,3.6-.01,1.52,1.4,1.66,3.61,.21,6.15-.53-.16-1.05-.32-1.58-.48Z"/>
          <path class="cls-2" d="M817.94,786.41c.19-.92,.37-1.84,.55-2.75,1.02,.12,1.84-.23,2.37-.85,.84-.97,.9-1.83-.34-2.9l-6.05-5.23c.76-.88,1.51-1.77,2.27-2.67,2.09,1.78,4.18,3.56,6.27,5.33,1.81,1.53,2.28,4.03-.02,6.69-1.59,1.84-3.2,2.55-5.04,2.38Z"/>
          <path class="cls-2" d="M825.95,776.16c-1.52-1.28-1.03-3.5,1.65-7.45-.68-.46-1.43-.39-2.25,.62-.63,.78-1.01,1.77-1.36,2.99-.74-.07-1.47-.13-2.21-.2,.41-1.63,1.1-3.27,2.28-4.73,1.92-2.37,4.04-2.85,6.29-1.05,1.4,1.12,2.8,2.23,4.19,3.35-.61,.77-1.23,1.54-1.84,2.31-.3-.13-.61-.27-.91-.4-.02,.02-.04,.05-.06,.07-.1,1.24-.45,2.45-1.31,3.51-1.41,1.72-3.27,2-4.48,.98Zm4.23-5.36c-.42-.34-.85-.69-1.27-1.03-1.39,2.15-1.49,3.15-.94,3.6,.47,.39,1.04,.16,1.58-.5,.51-.63,.62-1.26,.64-2.06Z"/>
          <path class="cls-2" d="M826.02,759.1c.71-.9,1.41-1.81,2.11-2.73,2,1.55,4.01,3.1,6.01,4.65,.02-.02,.04-.05,.05-.07-.2-1.78-.41-3.55-.64-5.32,.78-1.03,1.55-2.07,2.32-3.11,.2,1.9,.38,3.81,.55,5.73,2.39-.11,4.78-.24,7.18-.39-.79,1.06-1.57,2.12-2.37,3.18-1.53,0-3.05,0-4.58-.02,.04,.68,.09,1.37,.13,2.05,.61,.47,1.22,.94,1.83,1.41-.72,.94-1.45,1.88-2.18,2.81-3.47-2.73-6.95-5.46-10.42-8.2Z"/>
          <path class="cls-2" d="M843.13,756.68c-.14-.79-.28-1.57-.42-2.35,1.18-.52,2.06-1.15,2.66-1.99,.63-.88,.65-1.45,.25-1.74-.5-.36-1.44,.47-2.49,1.27-1.24,.96-2.88,1.91-4.13,.99-1.41-1.04-1.28-3.22,.35-5.49,1.08-1.51,2.35-2.31,3.45-2.81,.15,.76,.29,1.53,.43,2.29-.9,.43-1.65,.94-2.14,1.63-.54,.76-.58,1.29-.21,1.57,.48,.35,1.34-.44,2.36-1.27,1.26-1.01,2.81-2.06,4.22-1.07,1.39,.97,1.46,3.2-.48,5.91-.95,1.33-2.49,2.52-3.85,3.07Z"/>
          <path class="cls-2" d="M846.83,745.32c-2.49-1.75-2.42-5.14-.78-7.57,1.95-2.88,4.52-3.27,6.66-1.85,.42,.28,.79,.62,.94,.8-1.37,2.07-2.75,4.12-4.14,6.16,1.31,.5,2.52-.17,3.45-1.55,.53-.78,.82-1.61,.99-2.58,.69-.03,1.38-.06,2.07-.09-.15,1.44-.76,3.05-1.59,4.28-2,2.96-5.06,4.18-7.6,2.39Zm3.64-7.15c-.86-.58-1.8-.5-2.62,.71-.64,.95-.72,2.1,.12,2.98,.84-1.22,1.67-2.45,2.5-3.69Z"/>
          <path class="cls-2" d="M855.93,734.97c-2.89-1.88-5.77-3.77-8.66-5.65,.66-1.01,1.31-2.02,1.96-3.04,2.93,1.88,5.87,3.76,8.8,5.63,.5,.32,.86,.11,1.02-.14,.08-.12,.13-.21,.21-.4,.66,.24,1.31,.48,1.97,.72-.11,.42-.36,.99-.81,1.71-1.39,2.16-2.91,2.21-4.5,1.17Z"/>
        </g>
        <g id="g2755-8-9">
          <text class="cls-3" transform="translate(171.1 683.02) rotate(.07)"><tspan x="0" y="0" xml:space="preserve">   APOER NENEK</tspan></text>
          <text class="cls-3" transform="translate(238.73 683) rotate(179.93) scale(1 -1)"><tspan x="0" y="0">D</tspan></text>
        </g>
        <g>
          <path class="cls-2" d="M357.82,750.17c-4.08-4.08-9.43-6.29-15.25-6.29-11.88,0-21.54,9.66-21.54,21.54,0,3.84,1.05,7.45,2.91,10.71l-3.03,11.18,11.41-3.03c3.14,1.75,6.64,2.68,10.25,2.68h0c11.88,0,21.54-9.66,21.54-21.54,.12-5.82-2.21-11.18-6.29-15.25Zm-15.14,33.07h0c-3.26,0-6.4-.82-9.08-2.45l-.7-.35-6.75,1.75,1.75-6.64-.47-.7c-1.75-2.79-2.79-6.17-2.79-9.55,0-9.9,8.03-17.93,17.93-17.93,4.77,0,9.32,1.86,12.69,5.24,3.38,3.38,5.24,7.92,5.24,12.69,0,9.9-8.03,17.93-17.82,17.93Zm9.78-13.39c-.58-.23-3.14-1.51-3.73-1.75-.47-.12-.82-.23-1.16,.23-.35,.58-1.4,1.75-1.75,2.1s-.58,.47-1.16,.12c-.58-.23-2.33-.82-4.31-2.68-1.63-1.4-2.68-3.14-3.03-3.73-.35-.58,0-.82,.23-1.16,.23-.23,.58-.58,.82-.93s.35-.58,.58-.93c.12-.35,.12-.7,0-.93s-1.16-2.91-1.63-3.96c-.47-1.05-.93-.93-1.16-.93h-1.05c-.35,0-.93,.12-1.4,.7-.47,.58-1.86,1.86-1.86,4.54s1.98,5.24,2.21,5.59c.23,.35,3.84,5.82,9.2,8.15,1.28,.58,2.33,.93,3.03,1.16,1.28,.47,2.45,.35,3.38,.23,1.05-.12,3.14-1.28,3.61-2.56,.47-1.28,.47-2.33,.35-2.56-.35-.35-.58-.35-1.16-.7Z"/>
          <path class="cls-2" d="M583.13,748.01c5.71,0,6.4,0,8.62,.12,2.1,.12,3.26,.47,3.96,.7,1.05,.35,1.75,.82,2.45,1.63,.7,.82,1.16,1.51,1.63,2.45,.35,.7,.7,1.86,.7,3.96,.12,2.21,.12,2.91,.12,8.62s0,6.4-.12,8.62c-.12,2.1-.47,3.26-.7,3.96-.35,1.05-.82,1.75-1.63,2.45s-1.51,1.16-2.45,1.63c-.7,.35-1.86,.7-3.96,.7-2.21,.12-2.91,.12-8.62,.12s-6.4,0-8.62-.12c-2.1-.12-3.26-.47-3.96-.7-1.05-.35-1.75-.82-2.45-1.63s-1.16-1.51-1.63-2.45c-.35-.7-.7-1.86-.7-3.96-.12-2.21-.12-2.91-.12-8.62s0-6.4,.12-8.62c.12-2.1,.47-3.26,.7-3.96,.35-1.05,.82-1.75,1.63-2.45s1.51-1.16,2.45-1.63c.7-.35,1.86-.7,3.96-.7,2.21-.12,2.91-.12,8.62-.12m0-3.96c-5.82,0-6.52,0-8.85,.12s-3.84,.47-5.24,1.05-2.56,1.28-3.84,2.45c-1.16,1.16-1.86,2.33-2.45,3.84-.58,1.4-.93,2.91-1.05,5.24-.12,2.33-.12,3.03-.12,8.85s0,6.52,.12,8.85,.47,3.84,1.05,5.24,1.28,2.56,2.45,3.84c1.16,1.16,2.33,1.86,3.84,2.45,1.4,.58,2.91,.93,5.24,1.05,2.33,.12,3.03,.12,8.85,.12s6.52,0,8.85-.12,3.84-.47,5.24-1.05,2.56-1.28,3.84-2.45c1.16-1.16,1.86-2.33,2.45-3.84,.58-1.4,.93-2.91,1.05-5.24,.12-2.33,.12-3.03,.12-8.85s0-6.52-.12-8.85-.47-3.84-1.05-5.24-1.28-2.56-2.45-3.84-2.33-1.86-3.84-2.45c-1.4-.58-2.91-.93-5.24-1.05-2.33,0-3.03-.12-8.85-.12Zm0,10.48c-6.05,0-10.95,4.89-10.95,10.95s4.89,10.95,10.95,10.95,10.95-4.89,10.95-10.95c0-6.05-4.89-10.95-10.95-10.95Zm0,18.05c-3.96,0-7.1-3.14-7.1-7.1s3.14-7.1,7.1-7.1,7.1,3.14,7.1,7.1-3.14,7.1-7.1,7.1Zm13.97-18.51c0,1.4-1.16,2.56-2.56,2.56s-2.56-1.16-2.56-2.56,1.16-2.56,2.56-2.56,2.56,1.16,2.56,2.56Z"/>
          <text class="cls-4" transform="translate(370.51 771.91)"><tspan x="0" y="0">0878</tspan><tspan class="cls-10" x="50.3" y="0">-</tspan><tspan x="57.75" y="0">8620</tspan><tspan class="cls-10" x="108.05" y="0">-</tspan><tspan x="115.51" y="0">0282</tspan></text>
          <text class="cls-4" transform="translate(612.12 771.91)"><tspan x="0" y="0">de</tspan><tspan class="cls-8" x="25.76" y="0">.</tspan><tspan x="32.97" y="0">ens</tspan></text>
        </g>
        <g>
          <path class="cls-1" d="M813.68,414.28c-1.76-17.57-7.36-33.42-21.73-44.97-1.48-1.17-2.33-1.74-3.13-2.08-.14-.07-.3-.12-.44-.17-2.63-.57-3.9-1.1-6.64-1.1-7.12,0-14.28-.47-21.3,1.1-11.47,2.55-23.14,4.64-32.71,12.23-.11,.09-.23,.17-.34,.27-1.1,.67-1.98,1.48-2.17,2.84-2.58,3.99-5.98,7.24-9.53,10.29-10.62,9.16-23.1,15.05-35.99,20.19-.52,.2-1.08,.43-1.44,.23-1.17-.64,.11-.68,.31-.99,2.12-1.53,3.67-3.67,5.7-5.29,7.55-7.89,14.06-16.57,20.02-25.7,11.22-17.17,17.34-35.91,16.44-56.44-1.36-31.26-12.78-58.81-33.16-82.39-15.14-17.5-34.85-25.7-58.03-25.63-7.26,.02-15,.08-22.14,1.18-.24-.06-7.29,4.74-10.5,6.28-14.44,6.94-22.76,18.99-27.69,33.69-3.46,10.32-4.16,21.19-4.55,31.92-.26,6.97-.91,13.92-1.38,20.86-.21,3.19-.39,6.37-.48,9.56,.06,4.4-.21,8.81,.18,13.21,.89,4.58,.23,9.19,.42,13.78,.09,1.79-.12,3.59,.19,5.36-3.26-14.39-6.71-28.73-11.97-42.57-.87-1.99-1.16-4.23-2.66-5.94-.16-.3-13.54-29.71-24.13-41.77-14.21-16.18-31.75-26.32-53.32-29-6.95-.87-13.89-.23-20.79,.8-.96-.26-1.84,0-2.66,.43-.13,.07-.27,.13-.4,.21-5.04,2.18-9.9,4.66-14.23,8.08-6.19,4.88-11.15,10.97-15.73,17.26-3.51,4.83-6.34,10.27-7.26,16.29-1.23,8.11-1.24,16.24,1.05,24.26,.52,1.81,.6,3.7,1.23,5.58,.19,.55,.68,1.21,.8,1.74,.16,.65,2.32,3.06,2.73,3.59,3.26,4.22,4.74,5.87,7.9,10.04,0,.2,.52,.32,.1,.56-.06,.04-.17-.06-.23-.1-8.12-4.58-16.53-8.5-25.4-11.4-.74-.42-1.6-.49-2.38-.8-1.21-.47-2.44-.88-3.62-1.4-19.42-8.57-39.49-14.56-60.84-15.49-24.38-1.07-46.04,5.68-64.34,22.24-5.25,4.74-10.02,9.9-14.7,15.16-1.63,.74-2.27,2.26-2.93,3.77-.11,.27-.23,.53-.33,.8-2.29,5.33-4.03,10.85-5.71,16.4-2.02,6.59-3.03,13.32-2.89,20.29,.12,5.91,.37,11.8,1.18,17.66,1.6,11.67,6.09,22.41,10.95,33.02,.1,.23,.26,.45,.4,.66,.22,.32,.19,.69,.47,.85,.49,.31,.75,.71,1.42,.42,.51,.03,1.6-.44,2.19-.4-.34,.35-.56,.68-.74,.84-1.54,1.41-2.73,2.77-4.3,4.15-14.62,12.77-29.28,25.51-42.14,40.12-8.33,9.47-15.39,19.79-19.64,31.78-7.02,19.87-3.9,37.81,11.2,52.88,9.28,9.26,21.38,12.37,34.09,13.1,16.57,.95,32.52-2.38,48.22-7.44,3-.96,4.67-2.12,4.04-5.47-.13-.73,.09-1.57,.3-2.32,4.59-16.26,14.13-28.51,29.51-35.84,9.81-4.66,20.38-6.92,30.87-9.43,8.62-2.07,17.36-3.78,25.44-7.62,6.87-3.26,8.26-7.28,4.98-14.14-2.24-4.67-5.46-8.69-8.91-12.49-11.98-13.19-25.61-24.52-39.75-35.28-3.02-1.91-3.71-1.99,1.45-.52,6.92,2.01,13.92,3.73,20.65,6.38,17.79,7,33.69,17.19,48.88,28.61,.6,.68,1.59,.83,2.13,1.59,3.46,1.76,6.98,3.42,10.38,5.3,9.05,5.02,18.72,8.28,28.79,10.49,12.29,2.7,24.78,3.57,37.28,4.48,22.99,1.69,43.13-4.65,60.09-20.55,11.41-10.72,19.82-23.53,26.32-37.62,6.55-14.2,12.51-28.65,17.37-43.54,.43-.89,.89-1.76,1.05-2.71-.02,1.1,.15,2.17,.52,3.23,2.56,16.19,2.87,32.54,3.61,48.86,.42,9.38-.04,18.84,1.71,28.08,2.2,11.74,8.45,20.25,20.46,23.99,11.76,3.66,23.75,6.09,35.99,7.12,21.4,1.79,36.65-7.71,46.71-26.22,2.71-4.98,4.76-10.23,6.51-15.61,2.11-6.45,3.3-13.11,4.72-19.73,.64-2.57,.86-5.2,1.27-7.8,.12-.77,.44-1.51,.37-2.31-.02-.21,.02-.34,.16-.41,.05,.26,.11,.52,.19,.75,.12,.35,.32,.65,.62,.88,2.26,6.25,3.09,12.83,4.34,19.31,2.12,10.86,2.76,21.71-.15,32.57-2.58,9.58-5.48,19.04-8.78,28.39-1.36,3.87-1.34,3.83,2.51,5.04,2.99,.93,5.96,1.92,8.89,3.02,5.79,2.21,11.01,5.44,14.75,10.4,2.02,2.69,3.99,3.27,7.18,2.75,31.54-5.11,54.75-21.43,67.84-50.87,9.31-20.93,11.51-43.06,9.23-65.67Zm-249.85-60.8c-.04-.18-.09-.36-.12-.54,.03,.14,.07,.29,.1,.43,.05,.16,.11,.21,.21,.14,.3-.18,0,.29-.19-.03Zm21.29,33.92c0-.15-.04-.23-.14-.2-.33,.09,.1-.25,.15,.1,0,.04,0,.07,0,.1Z"/>
          <path class="cls-1" d="M643.34,516.26c9.51-.03,16.05,.67,24.06-.5,.86-.12,1.72-.25,2.58-.38,1.51,.17,1.74,1.42,2.27,2.51,1.71,3.44,2.6,7.24,5.68,10.05,3.64,3.34,7.9,4.13,12.46,4.23,4.97,.1,9.89,.36,14.36,2.79,2.27,1.22,5.51,2.69,7.7,4.05-.11-.27,3.93,11.37,3.23,17.45-.26,2.22,.42,20.41,0,20.49-9.99-1.46-29.56-4.8-39.55-6.23-23.95-3.43-47.97-6.25-72.06-8.37-23.6-2.08-47.21-3.48-70.91-3.44-24.48,.05-48.84,2.16-73.15,4.91-33.73,3.82-67.25,8.95-100.67,14.89-16.26,2.89-32.5,6.01-48.72,9.15-2.08,.4-2.89,.12-3.32-2.06-.98-4.94-2.37-9.8-2.58-14.87,.44-1.04,1.41-1.5,2.28-2.06,6.85-4.45,13.81-8.71,21.26-12.11,6.55-3,12.61-6.91,18.85-10.47,2.11-1.21,2.82-1.75,2.73-1.88l1.27-.6c-.27,.08-1.49,.2-3.61,.7-1.08,.26-4.68,.83-5.79,1.04-5.32,1.01-4.85,1.19-10.43,1.78-3.99,.6-4.95,.52-6.03,.67-10.19,1.39-13.51,1.13-20.8,2.07,1.17-6.35,2.91-11.87,9.29-14.8,9.29-4.27,19.1-6.93,28.86-9.81,11.09-3.27,22.26-6.3,32.85-11.04,2.94-1.31,5.77-2.82,8.65-4.24,4.83,2.03,9.97,2.91,15.02,4.1,15.07,3.55,30.33,5.43,45.82,5.44,6.35,0,12.7-.03,19.05,0,9.47,.04,18.89-.85,28.21-2.3,12.09-1.88,23.81-5.68,34.97-10.88,4.44-2.07,8.5-3.6,12.8-6.7-.17-.1,1.82-2.06,3.36-2.97,4.37-2.59,8.41-5.74,12.19-9.15,2.82,.85,4.49,3.19,6.42,5.13,10.81,10.89,23.87,17.3,38.89,20.06,6.31,1.15,12.7,1.55,19.07,2.17,6.48,.64,12.94,1.15,19.45,.87"/>
          <g>
            <g>
              <path class="cls-1" d="M469.47,469.9c-33.32,0-60.43-27.11-60.43-60.43s27.11-60.43,60.43-60.43,60.43,27.11,60.43,60.43-27.11,60.43-60.43,60.43Z"/>
              <path class="cls-2" d="M469.47,355.05c30.02,0,54.43,24.41,54.43,54.43s-24.41,54.43-54.43,54.43-54.43-24.41-54.43-54.43,24.41-54.43,54.43-54.43m0-12c-36.63,0-66.43,29.8-66.43,66.43s29.8,66.43,66.43,66.43,66.43-29.8,66.43-66.43-29.8-66.43-66.43-66.43h0Z"/>
            </g>
            <text class="cls-5" transform="translate(471.52 388.43) rotate(-179.32)"><tspan x="0" y="0">D</tspan></text>
            <text class="cls-5" transform="translate(469.7 429.26) rotate(.68)"><tspan x="0" y="0">N</tspan></text>
          </g>
          <g>
            <g>
              <path class="cls-9" d="M544.38,496.58c-3.54,3.64-12.59,8.69-17.03,10.76-11.16,5.2-23.02,8.18-35.12,10.06-9.33,1.45-18.74,2.34-28.21,2.3-6.34-.03-12.7,0-19.05,0-15.49,0-30.75-1.89-45.82-5.44-5.06-1.19-10.2-2.07-15.02-4.1,0-.15,.03-.3,.09-.44,.36-1.1,1.36-1.53,2.19-2.14,5.09-3.79,9.6-8.02,11.97-14.14,.96-2.48,1.55-2.65,3.95-1.34,16.62,9,34.63,12.86,53.2,14.92,7.8,.86,15.62,1.01,23.43,1.32,6.83,.27,13.73-.24,20.56-.79,4.51-.36,9.03,0,13.55-.56,8.11-.98,15.89-2.99,23.3-6.42,.99-.46,1.9-.95,3.01-1.54,1.82-.97,4.83-2.55,5.01-2.46Z"/>
              <path class="cls-9" d="M254.75,424.28s-1.63,.23-1.93,.27c-8.72,1.05-13.15,1.57-20,2.74-1.51,.26-2.11,.05-2.4-1.59-6.07-32.97-.34-63.38,19.07-90.83,.29-.42,.58-.84,.89-1.26,.14-.2,.49-.68,.69-.84-2.47,7.02-5.14,14.35-7.09,21.55-2.38,8.79-2.06,17.65-1.49,26.58,.42,6.51,1.26,12.91,3.27,19.12,2.34,7.17,4.9,14.26,8.16,21.07,.5,1.03,.84,3.19,.84,3.19Z"/>
              <path class="cls-9" d="M639.36,515.95c-6.51,.29-12.97-.23-19.45-.87-6.37-.63-12.75-1.02-19.07-2.17-15.01-2.76-28.08-9.17-38.89-20.06-1.93-1.95-3.6-4.28-6.42-5.13,.97-1.17,1.95-2.34,2.92-3.5,6.04-6.17,10.6-13.43,15.28-21.25,.84,6.2,1.29,11.88,2.76,17.4,.78,2.95,1.76,5.81,3.07,8.57,2.58,5.45,6.39,9.62,11.9,12.29,14.27,6.92,29.22,11.61,44.86,14.09,.26,.04,.52,.09,.78,.12,.76,.11,1.13,.18,2.25,.52Z"/>
              <path class="cls-7" d="M716.35,570.24c-.07,1.55,.09,3.13-.1,4.67-.27,2.12-.54,2.46-3.15,1.62-2.32-.75-1.83-.53-5.12-1.97-3.77-1.65-7.05-4-10.45-5.8-12.55-6.65-25.34-11.28-38.53-16.38-2.26-.88-4.4-1.68-7.15-2.99,2.85,.66,7.67,1.68,8.51,1.97,7.47,2.58,8.78,2.59,14.82,4.37,2.79,.82,11.89,2.5,13.53,2.98,8.09,2.32,16.21,4.51,24.29,6.83,3.32,.95,3.5,1.23,3.35,4.7Z"/>
              <path class="cls-9" d="M711.35,539.01c-2.19-1.36-4.32-2.83-6.59-4.05-4.47-2.42-9.39-2.68-14.36-2.79-4.56-.1-8.81-.9-12.46-4.23-3.08-2.81-3.98-6.61-5.68-10.05-.53-1.09-.76-2.34-2.27-2.51,.93-.31,1.86-.61,2.79-.93,3.76-.47,7.07-2.3,10.73-3.65,.13,2.95-.09,5.79,.62,8.57,.93,3.61,3.05,5.82,6.71,6.87,3.75,1.08,7.46,2.39,11.03,3.95,3.88,1.68,7.17,4.19,9.12,8.04,.13,.26,.26,.52,.37,.79Z"/>
              <path class="cls-9" d="M349.86,544.4c.1,.13-.62,.67-2.73,1.88-6.24,3.57-12.29,7.47-18.85,10.47-7.45,3.41-14.41,7.66-21.26,12.11-.87,.56-1.84,1.02-2.28,2.06-.11-.05-.24-.09-.36-.11-1.4-2.15-.99-4.44-.59-6.74,.34-1.46-.76-3.49,1.65-4.12,1.03-1.03,2.4-1.37,3.7-1.8,11.46-3.78,22.86-7.7,34.29-11.58,.84-.29,6.22-2.51,6.43-2.17Z"/>
              <path class="cls-9" d="M607.42,218.84s-.05,.03-.07,.05c-3.17,2.27-6.69,3.92-10.21,5.5-7.12,3.18-12.55,8.31-17.17,14.38-7.2,9.47-11.11,20.16-12.43,32.03-1.09,9.91-1.76,19.8-2.12,29.76-.23,6.19-1.6,12.39-1.97,18.61-.22-2.86,.06-5.71-.17-8.57-.26-3.45-.53-6.92-.8-10.37-.9-11.49-3-22.71-7.24-33.5-2.45-6.22-4.57-12.57-6.92-18.83-.58-1.53-.46-2.41,1.02-3.4,17.59-11.71,36.42-20.65,57.04-25.57,.33-.08,.69-.07,1.03-.1Z"/>
              <path class="cls-9" d="M448.51,234.4c-2.6,1.34-5.23,2.66-7.81,4.04-6.48,3.46-11.46,8.61-16.24,14.07-4.39,5-8.16,10.33-10.75,16.47-3.77,8.92-3.46,18.12-1.87,27.37,.63,3.65,1.62,8.98,2.5,12.59-.3-.34-1.43-1.92-1.72-2.26-5.73-6.71-10.52-13.95-16.25-20.66-1.13-1.33-2.13-2.79-3.4-3.95-1.97-1.78-1.97-3.22-.39-5.45,11.61-16.23,25.46-29.86,43.88-38.26,3.73-1.7,7.53-3.3,11.63-3.91,.14-.03,.3-.05,.44-.07Z"/>
              <path class="cls-9" d="M790.34,367.65c-.51-.15-1.01-.3-1.52-.42-6.02-1.55-12.18-1.37-18.32-1.12-9.86,.4-19.27,2.99-28.58,6.11-4.9,1.64-9.5,3.72-13.4,7.17-.23,.19-.65,.16-.98,.24,.07-.11,.13-.24,.2-.35,3.74-6.56,6.77-13.51,10.89-19.85,.72-1.23,2.02-1.97,3.31-2.27,3.37-.8,13.08-.82,16.12-.55,5.17,.46,10.49,1.52,14.82,2.83,5.76,1.75,12.71,4.37,17.45,8.2Z"/>
            </g>
            <g>
              <path class="cls-7" d="M681.23,384.45c9.56-12.03,12.66-23.11,17.24-44.23,3.09-14.23,2.8-29.17-.52-39.86-2.36-7.62-4.68-13.2-5.33-19.38,0,0,1.7,40.87-1.21,55.34-2.43,12.11-2.33,11.71-10.18,48.13Z"/>
              <path class="cls-7" d="M788.29,398.91c6.94,13.13,8.87,26.92,6.5,41.61-1.6,9.95-3.14,19.88-6.02,29.56-.99,3.32-1.68,5.52-2.89,8.28-.36,.83-.86,1.59-1.38,2.33-.76,1.1-1.56,5.6-2.17,5.38,1.08-4.48,2.97-12.43,4.57-17.55,.72-5.32,1.95-10.13,2.59-15.78,.67-5.97,1.03-14.54,.85-20.54-.42-14.18-.75-20.06-2.06-31.21-.08-.68,0-1.38,0-2.08Z"/>
              <path class="cls-7" d="M394.49,326.83c-10.99-3.34-30.44-14.36-48.52-14.87-12.18-.35-21.82,2.74-30.11,6.82-5.91,2.91-10.31,5.6-14.58,8.07,0,0,31.1-7.57,43.47-7.4,11.24,.16,49.75,7.38,49.75,7.38Z"/>
              <path class="cls-7" d="M549.96,336.08c-3.16-11.16-15.24-30.88-24.86-46.29-6.48-10.38-12.17-17.78-20.44-22.28-5.89-3.2-9.69-6.04-13.71-9.38,0,0,22.55,25.32,29.28,35.74,6.13,9.48,29.72,42.21,29.72,42.21Z"/>
              <path class="cls-7" d="M212.53,542.24c-4.52-9.34-5.52-19.03-3.5-29.23,1.37-6.92,2.69-13.81,4.95-20.5,.78-2.3,1.31-3.82,2.23-5.71,.27-.57,.64-1.09,1.02-1.59,.56-.75,1.23-3.87,1.65-3.71-.87,3.1-2.39,8.61-3.63,12.15-.64,3.7-1.62,7.03-2.21,10.96-.62,4.15-1.08,10.13-1.11,14.33-.06,9.92,.02,14.04,.66,21.86,.04,.48-.04,.97-.06,1.45Z"/>
            </g>
          </g>
          <g>
            <path class="cls-2" d="M828.16,390.82c-11.09-36.73-38.24-51.04-68.42-51.43l-3.19-.06c-4.52-.14-8.97-.43-13.32-.4-1.42,0-1.94-.34-1.97-1.87-.13-6.7-.42-13.38-.65-20.08-.15-4.44-.57-8.85-1.27-13.23-3.73-23.44-13.09-44.61-26.3-64.12-9.09-13.42-20.39-24.67-34.81-32.43-21.29-11.46-43.92-12.92-67.21-8.51-20.88,3.97-40.25,12.04-58.71,22.41-7.71,4.34-15.31,8.88-22.3,14.35l-.02,.02,.09,.04c-.69,.38-1.05,.54-2.26,1.31-1.71,1.09-2.58,1.05-4.18-.14-9.19-6.88-19.18-12.28-29.84-16.43-15-5.86-31.47-7.16-47.09-3.25-12.32,3.09-23.5,8.62-34.01,15.6-17.88,11.89-32.83,26.87-45.74,43.94-1.67,2.22-3.3,2.92-6.19,1.98-13.68-4.43-27.73-5.78-42.03-4.13-20.45,2.37-38.68,10.38-55.51,21.91-21.53,14.75-37.47,33.87-46.23,58.65-7.26,20.53-9.19,41.69-7.4,63.28,.61,7.36,1.49,14.72,3.23,21.92,.93,3.85,.83,4.44-2.35,6.86-7.63,5.84-14.7,12.28-20.92,19.62-17.44,20.6-25.08,43.78-18.87,70.74,4.57,19.79,15.54,33.9,35.1,40.67,8.2,2.84,16.69,4.28,25.33,4.69,19.2,.91,38.03-1.75,56.66-6.2,1.43-.34,2.3-.62,2.61,1.4,1.31,8.54,3.7,16.79,6.52,24.94,.75,2.17,1.59,2.68,3.84,2.21,25.73-5.36,51.57-10.1,77.49-14.45,28.59-4.8,57.25-9.05,86.06-12.26,20.07-2.24,40.18-4.03,60.41-4.43,27.28-.53,54.47,1.06,81.64,3.53,21.06,1.93,42.06,4.42,63.02,7.31,19.14,2.64,38.22,5.65,57.23,9.12,1.62,.31,2.06-.04,2.25-1.66,1.75-15.05,3.52-30.08,1.3-45.5,7.39,.39,14.56-.48,21.59-2.08,29.75-6.74,53.22-22.25,68.29-49.28,8.26-14.8,11.82-30.97,13.05-47.69,1.41-19.2,.67-38.28-4.96-56.88Zm-111.81,179.42c-.07,1.55,.09,3.13-.1,4.67-.27,2.12-.95,2.45-3.15,1.62-2.22-1.01-26.97-4.38-36.96-5.81-23.95-3.43-47.97-6.25-72.06-8.37-23.6-2.08-47.21-3.48-70.91-3.44-24.48,.05-48.84,2.16-73.15,4.91-33.73,3.82-67.25,8.95-100.67,14.89-16.26,2.89-32.5,6.01-48.72,9.15-2.08,.4-2.89,.12-3.32-2.06-.98-4.94-2.37-9.8-2.58-14.87-.11-.05-1.72-10.35,.7-10.98,1.03-1.03,2.4-1.37,3.7-1.8,11.46-3.78,22.86-7.7,34.29-11.58,.84-.29,6.22-2.51,6.43-2.17l1.27-.6c-.27,.08-1.49,.2-3.61,.7-1.08,.26-4.68,.83-5.79,1.04-5.32,1.01-4.85,1.19-10.43,1.78-3.99,.6-4.95,.52-6.03,.67-10.19,1.39-13.51,1.13-20.8,2.07,1.17-6.35,2.91-11.87,9.29-14.8,9.29-4.27,19.1-6.93,28.86-9.81,11.09-3.27,22.26-6.3,32.85-11.04,2.94-1.31,5.77-2.82,8.65-4.24,0-.15,.03-.3,.09-.44,.36-1.1,1.36-1.53,2.19-2.14,5.09-3.79,9.6-8.02,11.97-14.14,.96-2.48,1.55-2.65,3.95-1.34,16.62,9,34.63,12.86,53.2,14.92,7.8,.86,15.62,1.01,23.43,1.32,6.83,.27,13.76-.1,20.61-.35,5.38-.19,8.98-.45,13.5-1,8.11-.98,14.62-2.69,22.52-5.7,1.02-.39,2.97-1.41,4.09-1.96,1.92-.96,2.43-1.18,3.98-2.06,4.98-2.81,8.11-6.14,11.88-9.55,.97-1.17,1.95-2.34,2.92-3.5,6.04-6.17,10.6-13.43,15.28-21.25,.84,6.2,1.29,11.88,2.76,17.4,.78,2.95,1.76,5.81,3.07,8.57,2.58,5.45,6.39,9.62,11.9,12.29,14.27,6.92,24.8,10.04,44.51,14.35,1.24,.27,2.02,.22,3.31,.38s2.39,.17,4.05,.31c8.1,.69,16.05,.67,24.06-.5,.86-.12,1.72-.25,2.58-.38,.93-.31,1.86-.61,2.79-.93,3.76-.47,7.07-2.3,10.73-3.65,.13,2.95-.09,5.79,.62,8.57,.93,3.61,3.05,5.82,6.71,6.87,3.75,1.08,7.46,2.39,11.03,3.95,3.88,1.68,7.17,4.19,9.12,8.04,.11,.22,.18,.47,.76,1.61,2.41,5.4,3.55,10.78,3.95,16.64,.15,2.23-.51,2.54-2.57,2.18-12.86-2.24-25.73-4.37-38.61-6.51-.68-.11-15.26-2.13-22.66-2.74,5.91,2.19,17.29,4.56,23.33,6.33,2.79,.82,11.89,2.5,13.53,2.98,8.09,2.32,16.21,4.51,24.29,6.83,3.32,.95,3.5,1.23,3.35,4.7Zm88.09-90.29c-13.09,29.43-36.29,45.75-67.84,50.87-3.2,.52-5.16-.06-7.18-2.75-3.74-4.96-8.96-8.18-14.75-10.4-2.93-1.11-5.9-2.09-8.89-3.02-3.84-1.2-3.87-1.16-2.51-5.04,3.3-9.35,6.21-18.81,8.78-28.39,2.91-10.86,2.27-21.71,.15-32.57-1.25-6.48-2.08-13.06-4.34-19.31-.3-.23-.5-.52-.62-.88-.08-.24-.14-.5-.19-.75-.14,.07-.18,.2-.16,.41,.07,.8-.25,1.54-.37,2.31-.41,2.6-.63,5.24-1.27,7.8-1.42,6.62-2.61,13.29-4.72,19.73-1.76,5.38-3.81,10.64-6.51,15.61-10.06,18.51-25.3,28.01-46.71,26.22-12.24-1.03-24.23-3.46-35.99-7.12-12.01-3.74-18.26-12.25-20.46-23.99-1.75-9.24-1.29-18.7-1.71-28.08-.74-16.32-1.06-32.68-3.61-48.86-.36-1.06-.53-2.14-.52-3.23-.16,.95-.62,1.82-1.05,2.71-4.85,14.89-10.82,29.34-17.37,43.54-6.5,14.09-14.91,26.9-26.32,37.62-16.96,15.91-37.1,22.24-60.09,20.55-12.5-.92-25-1.78-37.28-4.48-10.06-2.21-19.73-5.47-28.79-10.49-3.4-1.88-6.92-3.54-10.38-5.3-.53-.76-1.53-.92-2.13-1.59-15.19-11.43-31.09-21.61-48.88-28.61-6.73-2.65-13.73-4.37-20.65-6.38-5.16-1.48-4.47-1.39-1.45,.52,14.14,10.76,27.77,22.09,39.75,35.28,3.45,3.81,6.67,7.82,8.91,12.49,3.28,6.86,1.89,10.87-4.98,14.14-8.08,3.84-16.82,5.55-25.44,7.62-10.49,2.52-21.07,4.77-30.87,9.43-15.39,7.33-24.92,19.58-29.51,35.84-.21,.74-1.34,6.82-4.34,7.78-15.7,5.06-31.65,8.39-48.22,7.44-12.7-.72-24.81-3.83-34.09-13.1-15.1-15.07-18.22-33.01-11.2-52.88,4.24-11.99,11.31-22.31,19.64-31.78,12.86-14.6,27.52-27.35,42.14-40.12,1.57-1.37,4.87-4.64,5.04-4.99-.59-.04-2.92,.39-4.28,.51-6.87,1.1-13.54,1.84-20.39,3.01-1.51,.26-2.11,.05-2.4-1.59-6.07-32.97-.34-63.38,19.07-90.83,.1-.27,1.47-1.75,3.26-4.57,4.68-5.26,9.45-10.42,14.7-15.16,18.3-16.56,39.96-23.31,64.34-22.24,21.36,.93,41.42,6.92,60.84,15.49,1.18,.52,2.41,.93,3.62,1.4,.78,.31,1.64,.38,2.38,.8,8.87,2.9,17.28,6.82,25.4,11.4,.06,.04,.17,.13,.23,.1,.42-.24-.09-.36-.1-.56-3.16-4.18-4.64-5.83-7.9-10.04-.41-.52-14.16-18.73-19.9-25.45-1.13-1.33-2.13-2.79-3.4-3.95-1.97-1.78-1.97-3.22-.39-5.45,11.61-16.23,25.46-29.86,43.88-38.26,3.73-1.7,12.07-3.98,14.29-4.34,7.06-1.15,13.84-1.67,20.79-.8,21.57,2.68,39.11,12.82,53.32,29,10.59,12.06,25.92,45.72,26.79,47.71,5.26,13.84,8.71,28.18,11.97,42.57-.31-1.77-.11-3.57-.19-5.36-.19-4.59,.09-31.3,.08-34.49-.01-3.46-.02-22.13-6.46-40.98-2.16-6.33-6.36-17.51-8.71-23.77-.58-1.53-.46-2.41,1.02-3.4,17.59-11.71,37.42-20.84,58.07-25.67,.33-.08,14.88-2.16,22.14-2.17,23.18-.07,42.89,8.13,58.03,25.63,20.38,23.58,31.8,51.13,33.16,82.39,.9,20.53-5.23,39.27-16.44,56.44-5.96,9.13-12.47,17.81-20.02,25.7-2.03,1.62-3.59,3.77-5.7,5.29-.19,.31-1.48,.35-.31,.99,.36,.2,.93-.03,1.44-.23,12.89-5.14,27.75-12.06,39.1-22.62,3.43-3.19,8.81-10.89,8.92-10.97,3.74-6.56,6.77-13.51,10.89-19.85,.72-1.23,1.91-1.7,3.2-2.01,6.81-1.66,16.2-.63,19.23-.22,5.17,.71,8.93,1.34,13.26,2.64,5.76,1.75,16.16,8.29,17.64,9.46,14.36,11.55,19.96,27.4,21.73,44.97,2.28,22.61,.08,44.74-9.23,65.67Z"/>
            <g>
              <path class="cls-2" d="M684.2,377.03c6.31-12.6,9.41-26.1,11.32-39.96,.9-6.55,1.8-13.08,1.58-19.73-.33-10.39-1.6-20.53-4.46-30.52-.31-1.08-.6-2.19-.84-3.3-.07-.34-.15-.54-.29-1.07-.92-3.49-1.4-3.37,.52-.98,3.45,5.28,5.45,11.17,7.23,17.14,2.82,9.45,4.43,19.08,4.79,28.96,.34,9.32-1.74,18.17-5.2,26.66-3.69,9.05-6.78,18.43-12.96,26.28-2.58,3.28-7.57,8.37-10.7,11.14,2.41-3.24,1.94-2.72,2.26-3.11l6.76-11.53Z"/>
              <path class="cls-2" d="M372.82,320.81c-1.09-.24-8.01-2.34-9.12-2.45-8.07-1.83-12.42-2.45-21.38-2.45-13.82,0-26.66,3.69-38.56,9.86-.62,.32-1.25,.59-1.9,.85-4.28,1.76-6.29,3.27-1.23-.74,9.91-8.71,21.4-13.78,34.48-15.71,12.8-1.89,24.61,1.48,36.36,5.74,7.75,2.81,15.24,6.2,22.5,10.1,.9,.48,1.76,1.03,2.44,2.1l-23.58-7.29Z"/>
              <path class="cls-2" d="M550.18,336.85c-1.79-3.46-4.8-7.49-6.59-10.95-1.36-1.98-1.71-2.81-2.17-3.82-7.35-15.89-17.4-28.79-27.99-42.57-5.34-6.95-11.88-12.87-18.98-18.11-1.05-.77-2.04-1.62-3.03-2.46-.21-.28-.43-.55-.64-.83-.13-.58,.04-.87,.68-.71,15.32,6.97,27.52,17.86,38.02,30.74,4.07,5,6.49,11.07,9.1,16.96,4.11,9.28,7.14,18.96,10.55,28.51l1.05,3.25Z"/>
              <path class="cls-2" d="M788.29,398.91c-.4-1.14-.8-2.29-1.2-3.43-.58-2.28-1.39-3.51,.68-.7,9.17,12.51,12.95,24.62,13.14,40.26,.07,5.96-2.03,13.67-3.74,19.21-3.67,11.89-6.86,20.1-14.16,33.02-.25,.44-2.7,3.52-2.51,2.97,.55-1.54,2.82-6.55,3.27-8.11,.67-2.31,1.03-3.19,1.62-4.7,4.51-11.66,7.04-23.78,8.45-36.17,.32-2.84,.91-5.63,1.09-8.5,.59-9.53-1.94-16.74-4.59-27.44-.89-2.07-1.63-4.19-2.04-6.41Z"/>
              <path class="cls-2" d="M212.53,542.24c.25,.81,.5,1.62,.75,2.43,.35,1.61,.88,2.49-.49,.47-6.09-8.97-9.41-18.79-9.15-29.72,.1-4.17,1.67-7.93,3.01-11.76,2.86-8.22,6.36-14.18,11.78-23.03,.19-.3,1.98-2.39,1.83-2.01-.42,1.06-2.13,4.5-2.49,5.59-.53,1.6-.8,2.2-1.25,3.24-3.44,8.04-5.52,16.44-6.81,25.06-.3,1.97-.78,3.91-.98,5.92-.65,6.64,.1,13.07,2.52,19.29,.57,1.47,1.03,2.97,1.27,4.53Z"/>
            </g>
          </g>
        </g>
      </g>
    </g>
  </g>
</svg>